<svg version="1.1" id="Layer_1" xmlns="http://www.w3.org/2000/svg" xmlns:xlink="http://www.w3.org/1999/xlink" x="0px" y="0px" viewBox="0 0 500 500" style="width: 151px;" xml:space="preserve" data-imageid="startup-19" imageName="Startup" class="illustrations_image">
<style type="text/css">
	.st0_startup-19{fill:#FFFFFF;}
	.st1_startup-19{fill:#D1D3D4;}
	.st2_startup-19{fill:#231F20;}
	.st3_startup-19{fill:#68E1FD;}
</style>
<g id="Frame_startup-19">
	<rect x="69.8" y="91" class="st0_startup-19" width="363.6" height="212.4"/>
	<path class="st1_startup-19" d="M433.3,304.1H69.8c-0.4,0-0.7-0.3-0.7-0.7V91c0-0.4,0.3-0.7,0.7-0.7l0,0h363.6c0.4,0,0.7,0.3,0.7,0.7l0,0&#10;&#9;&#9;v212.4C434.1,303.7,433.7,304.1,433.3,304.1z M70.5,302.6h362.1V91.7H70.5V302.6z"/>
	<rect x="69.8" y="80.9" class="st0_startup-19" width="363.6" height="10.1"/>
	<path class="st1_startup-19" d="M433.3,91.7H69.8c-0.4,0-0.7-0.3-0.7-0.7l0,0V80.9c0-0.4,0.3-0.7,0.7-0.7l0,0h363.6c0.4,0,0.7,0.3,0.7,0.7l0,0&#10;&#9;&#9;V91C434.1,91.4,433.7,91.7,433.3,91.7L433.3,91.7z M70.5,90.3h362.1v-8.6H70.5V90.3z"/>
</g>
<g id="Floor_startup-19">
	<path class="st1_startup-19" d="M457.3,377H45.8c-0.4,0-0.7-0.3-0.7-0.7s0.3-0.7,0.7-0.7l0,0h411.5c0.4,0,0.7,0.3,0.7,0.7S457.7,377,457.3,377&#10;&#9;&#9;z"/>
</g>
<g id="Wall_of_texts_and_symbols_startup-19">
	<path class="st1_startup-19" d="M333.7,142H294c-0.4,0-0.7-0.3-0.7-0.7s0.3-0.7,0.7-0.7c0,0,0,0,0,0h39.7c0.4,0,0.7,0.3,0.7,0.7&#10;&#9;&#9;C334.4,141.7,334.1,142,333.7,142L333.7,142z"/>
	<path class="st1_startup-19" d="M333.7,151H294c-0.4,0-0.7-0.3-0.7-0.7s0.3-0.7,0.7-0.7c0,0,0,0,0,0h39.7c0.4,0,0.7,0.3,0.7,0.7&#10;&#9;&#9;C334.4,150.7,334.1,151,333.7,151L333.7,151z"/>
	<path class="st1_startup-19" d="M333.7,160H294c-0.4,0-0.7-0.3-0.7-0.7c0-0.4,0.3-0.7,0.7-0.7h39.7c0.4,0,0.7,0.3,0.7,0.7&#10;&#9;&#9;C334.4,159.7,334.1,160,333.7,160L333.7,160z"/>
	<path class="st1_startup-19" d="M319.6,169H294c-0.4,0-0.7-0.3-0.7-0.7c0-0.4,0.3-0.7,0.7-0.7h25.6c0.4,0,0.7,0.3,0.7,0.7&#10;&#9;&#9;C320.3,168.7,320,169,319.6,169L319.6,169z"/>
	<path class="st1_startup-19" d="M215.6,155.5h-56.5c-0.4,0-0.7-0.3-0.7-0.7v-33.2c0-0.4,0.3-0.7,0.7-0.7c0.4,0,0.7,0.3,0.7,0.7c0,0,0,0,0,0&#10;&#9;&#9;v32.5h55.8c0.4,0,0.7,0.3,0.7,0.7C216.3,155.2,216,155.5,215.6,155.5L215.6,155.5z"/>
	<path class="st1_startup-19" d="M165.2,150.4H165c-0.4-0.1-0.6-0.5-0.5-0.9c0.1-0.5,3.8-12,12.2-14.3c4.7-1.3,6,1.1,7.2,3.4&#10;&#9;&#9;c1.1,2.1,2.2,4.1,6.1,4.3h0.2c8,0,14.2-17.7,14.3-17.9c0.1-0.4,0.5-0.6,0.9-0.5s0.6,0.5,0.5,0.9c0,0,0,0,0,0.1&#10;&#9;&#9;c-0.3,0.8-6.7,18.8-15.6,18.8h-0.3c-4.6-0.2-6.1-2.9-7.2-5s-2-3.7-5.7-2.7c-7.8,2-11.2,13.2-11.3,13.3&#10;&#9;&#9;C165.8,150.2,165.5,150.4,165.2,150.4z"/>
	<path class="st1_startup-19" d="M310.3,258.2c-6.8,0-12.3-5.5-12.3-12.3s5.5-12.3,12.3-12.3c6.8,0,12.3,5.5,12.3,12.3c0,0,0,0,0,0&#10;&#9;&#9;C322.5,252.8,317,258.2,310.3,258.2z M310.3,235.1c-6,0-10.9,4.9-10.9,10.9c0,6,4.9,10.9,10.9,10.9c6,0,10.8-4.8,10.9-10.8&#10;&#9;&#9;C321.1,240,316.3,235.1,310.3,235.1C310.3,235.1,310.3,235.1,310.3,235.1L310.3,235.1z"/>
	<path class="st1_startup-19" d="M319.8,253.2c-0.1,0-0.3,0-0.4-0.1l-9.5-6.5c-0.2-0.1-0.3-0.3-0.3-0.6v-11.6c0-0.4,0.3-0.7,0.7-0.7&#10;&#9;&#9;c0.4,0,0.7,0.3,0.7,0.7v11.2l9.2,6.3c0.3,0.2,0.4,0.6,0.2,1c0,0,0,0,0,0C320.2,253.1,320,253.2,319.8,253.2z"/>
	<path class="st1_startup-19" d="M299.4,249.1c-0.4,0-0.7-0.3-0.7-0.7c0-0.3,0.2-0.6,0.5-0.7l10.8-2.5c0.4-0.1,0.8,0.1,0.9,0.5&#10;&#9;&#9;c0.1,0.4-0.1,0.8-0.5,0.9c0,0-0.1,0-0.1,0l-10.8,2.5L299.4,249.1z"/>
	<path class="st1_startup-19" d="M200.6,247.9H184c-0.4,0-0.7-0.3-0.7-0.7c0-0.4,0.3-0.7,0.7-0.7c0,0,0,0,0,0h16.6c0.4,0,0.7,0.3,0.7,0.7&#10;&#9;&#9;C201.3,247.6,201,247.9,200.6,247.9C200.6,247.9,200.6,247.9,200.6,247.9L200.6,247.9z"/>
	<path class="st1_startup-19" d="M194.5,255.1H184c-0.4,0-0.7-0.3-0.7-0.7c0-0.4,0.3-0.7,0.7-0.7c0,0,0,0,0,0h10.5c0.4,0,0.7,0.3,0.7,0.7&#10;&#9;&#9;C195.2,254.7,194.9,255,194.5,255.1C194.5,255.1,194.5,255.1,194.5,255.1z"/>
</g>
<g id="Rocket_taking_off_startup-19">
	<rect x="243.7" y="224.4" class="st0_startup-19" width="19.8" height="63.4"/>
	<path class="st1_startup-19" d="M263.4,288.6h-19.8c-0.4,0-0.7-0.3-0.7-0.7v-63.4c0-0.4,0.3-0.7,0.7-0.7h19.8c0.4,0,0.7,0.3,0.7,0.7l0,0v63.4&#10;&#9;&#9;C264.1,288.3,263.8,288.6,263.4,288.6L263.4,288.6z M244.4,287.1h18.3v-62h-18.3L244.4,287.1z"/>
	<path class="st0_startup-19" d="M168.2,303.4c0,0,4.3-24.1,20.6-30.7s25.1,7,25.1,7s4.2-22.4,30.1-22.4s31.8,17.6,31.8,17.6s5.3-10.6,17-9.9&#10;&#9;&#9;s13.4,15.3,13.4,15.3s10.4-5.2,21.6,0s15.9,23,15.9,23L168.2,303.4z"/>
	<path class="st1_startup-19" d="M343.6,304.1H168.2c-0.4,0-0.7-0.3-0.7-0.7c0-0.1,0-0.1,0-0.2c0.2-1,4.6-24.6,21-31.2c13.6-5.5,22.3,2.8,25,6&#10;&#9;&#9;c1.5-5.1,8.2-21.5,30.4-21.5c21.8,0,29.8,12.6,31.9,16.8c1.9-2.9,7.4-9.7,16.9-9.1c10.3,0.6,13.3,11.7,14,15&#10;&#9;&#9;c6.9-2.8,14.6-2.7,21.3,0.4c11.4,5.3,16.1,22.8,16.3,23.5c0.1,0.2,0,0.4-0.1,0.6C344.1,303.9,343.9,304,343.6,304.1z M169.1,302.6&#10;&#9;&#9;h173.6c-1.1-3.7-5.9-17.3-15.2-21.7c-10.7-5-20.8-0.1-20.9,0c-0.2,0.1-0.5,0.1-0.7,0c-0.2-0.1-0.3-0.3-0.4-0.5&#10;&#9;&#9;c0-0.1-1.8-14-12.8-14.7s-16.2,9.4-16.3,9.5c-0.1,0.3-0.4,0.4-0.7,0.4c-0.3,0-0.5-0.2-0.6-0.5c-0.1-0.2-6.2-17.1-31.1-17.1&#10;&#9;&#9;c-10.4,0-18.6,3.7-24.1,10.9c-2.5,3.2-4.3,7-5.2,10.9c-0.1,0.4-0.5,0.6-0.9,0.6c-0.2,0-0.4-0.1-0.5-0.3c-0.4-0.5-8.7-13-24.2-6.7&#10;&#9;&#9;C175.1,279,170.1,298.3,169.1,302.6L169.1,302.6z"/>
	<polygon class="st0_startup-19" points="264,234.5 242.6,234.5 240,224.2 266.6,224.2 &#9;"/>
	<path class="st1_startup-19" d="M264,235.2h-21.4c-0.3,0-0.6-0.2-0.7-0.6l-2.6-10.3c0-0.2,0-0.4,0.1-0.6c0.1-0.2,0.3-0.3,0.6-0.3h26.6&#10;&#9;&#9;c0.2,0,0.4,0.1,0.6,0.3c0.1,0.2,0.2,0.4,0.1,0.6l-2.6,10.3C264.6,235,264.3,235.2,264,235.2z M243.1,233.8h20.3l2.2-8.9h-24.8&#10;&#9;&#9;L243.1,233.8z"/>
	<path class="st0_startup-19" d="M229.2,192c0,0-11.2,7-15.1,18.8s5,34.4,5,34.4l20.5-22.2L229.2,192z"/>
	<path class="st1_startup-19" d="M219.1,245.8h-0.1c-0.2,0-0.5-0.2-0.5-0.4c-0.4-0.9-9-23-5-34.9s15-18.8,15.5-19.1c0.2-0.1,0.4-0.1,0.6-0.1&#10;&#9;&#9;c0.2,0.1,0.4,0.2,0.4,0.4l10.3,30.9c0.1,0.2,0,0.5-0.1,0.7l-20.5,22.2C219.5,245.8,219.3,245.8,219.1,245.8z M228.8,193.1&#10;&#9;&#9;c-2.6,1.8-10.9,8.3-14.1,17.9c-3.3,9.9,2.9,28.1,4.6,32.8l19.4-21L228.8,193.1z"/>
	<path class="st0_startup-19" d="M277.9,192c0,0,11.2,7,15.2,18.8s-5,34.4-5,34.4l-20.5-22.2L277.9,192z"/>
	<path class="st1_startup-19" d="M288,245.8c-0.2,0-0.4-0.1-0.5-0.2L267,223.4c-0.2-0.2-0.2-0.5-0.1-0.7l10.3-30.9c0.1-0.2,0.2-0.4,0.4-0.4&#10;&#9;&#9;c0.2-0.1,0.4,0,0.6,0.1c0.5,0.3,11.5,7.3,15.5,19.1s-4.6,33.9-5,34.9c-0.1,0.2-0.3,0.4-0.5,0.4L288,245.8z M268.4,222.8l19.4,21&#10;&#9;&#9;c1.7-4.6,7.9-22.9,4.6-32.8c-3.2-9.6-11.5-16-14.1-17.9L268.4,222.8z"/>
	<path class="st0_startup-19" d="M271.7,228.1c5.6-13.4,9.1-32.8,9.1-54.4c0-32.7-18-49.7-24.9-55c-1.5-1.2-3.7-1.2-5.2,0&#10;&#9;&#9;c-6.9,5.3-24.9,22.3-24.9,55c0,21.6,3.5,41,9.1,54.4c0,0,5.6,2.8,18.4,2.8C266.1,230.9,271.7,228.1,271.7,228.1z"/>
	<path class="st1_startup-19" d="M253.3,231.6c-12.8,0-18.5-2.8-18.7-2.9c-0.2-0.1-0.3-0.2-0.3-0.4c-5.8-13.9-9.2-33.9-9.2-54.7&#10;&#9;&#9;c0-32.6,17.6-49.8,25.2-55.6c1.8-1.4,4.3-1.4,6.1,0c7.6,5.8,25.2,23,25.2,55.6c0,20.8-3.3,40.7-9.2,54.6c-0.1,0.2-0.2,0.3-0.3,0.4&#10;&#9;&#9;C271.8,228.9,266.1,231.6,253.3,231.6z M235.5,227.6c1.2,0.5,6.8,2.6,17.8,2.6c11,0,16.7-2.1,17.8-2.6c5.7-13.8,9-33.3,9-53.8&#10;&#9;&#9;c0-32-17.2-48.8-24.6-54.5c-1.3-1-3-1-4.3,0c-7.4,5.7-24.6,22.5-24.6,54.5C226.5,194.2,229.8,213.8,235.5,227.6L235.5,227.6z&#10;&#9;&#9; M271.7,228.1L271.7,228.1z"/>
	<path class="st0_startup-19" d="M250.7,118.7c-8.4,6.7-15,15.4-19.1,25.3H275c-4.1-9.9-10.7-18.6-19.1-25.3&#10;&#9;&#9;C254.3,117.5,252.2,117.5,250.7,118.7z"/>
	<path class="st1_startup-19" d="M275,144.8h-43.4c-0.4,0-0.7-0.3-0.7-0.7c0-0.1,0-0.2,0.1-0.3c4.2-10,10.8-18.9,19.4-25.6l0,0&#10;&#9;&#9;c1.8-1.4,4.3-1.4,6.1,0c8.5,6.8,15.2,15.6,19.4,25.6c0.1,0.2,0.1,0.5-0.1,0.7C275.5,144.6,275.2,144.8,275,144.8z M232.6,143.3&#10;&#9;&#9;h41.2c-4.1-9.4-10.4-17.7-18.5-24.1c-1.3-1-3-1-4.3,0l0,0C243.1,125.6,236.7,133.9,232.6,143.3L232.6,143.3z"/>
	<circle class="st0_startup-19" cx="254.4" cy="168.4" r="16.8"/>
	<path class="st1_startup-19" d="M254.4,185.9c-9.7,0-17.5-7.8-17.5-17.5c0-9.7,7.8-17.5,17.5-17.5c9.7,0,17.5,7.8,17.5,17.5c0,0,0,0,0,0&#10;&#9;&#9;C271.8,178,264,185.8,254.4,185.9z M254.4,152.3c-8.9,0-16.1,7.2-16.1,16.1s7.2,16.1,16.1,16.1c8.9,0,16.1-7.2,16.1-16.1&#10;&#9;&#9;C270.4,159.5,263.2,152.3,254.4,152.3z"/>
	
		<ellipse transform="matrix(0.1602 -0.9871 0.9871 0.1602 47.43 392.4673)" class="st0_startup-19" cx="254.4" cy="168.4" rx="10.4" ry="10.3"/>
	<path class="st1_startup-19" d="M254.4,179.4c-6.1,0-11.1-5-11.1-11.1s5-11.1,11.1-11.1c6.1,0,11.1,5,11.1,11.1&#10;&#9;&#9;C265.4,174.5,260.5,179.4,254.4,179.4z M254.4,158.7c-5.3,0-9.6,4.3-9.6,9.6c0,5.3,4.3,9.6,9.6,9.6c5.3,0,9.6-4.3,9.6-9.6&#10;&#9;&#9;c0,0,0,0,0,0C264,163,259.7,158.7,254.4,158.7z"/>
	<path class="st1_startup-19" d="M262.6,168.1c-0.3,0-0.6-0.3-0.7-0.6c-1-7.1-7.2-6.7-7.5-6.7c-0.4,0.1-0.7-0.2-0.8-0.6s0.2-0.7,0.6-0.8&#10;&#9;&#9;c0,0,0.1,0,0.1,0c4.6-0.2,8.6,3.3,8.9,7.9c0.1,0.4-0.2,0.7-0.6,0.8c0,0,0,0,0,0L262.6,168.1z"/>
	<path class="st1_startup-19" d="M250.7,161.8c-0.4,0-0.7-0.3-0.7-0.7c0-0.2,0.1-0.4,0.3-0.5c0.6-0.4,1.3-0.7,2-0.9c0.4,0,0.7,0.2,0.8,0.6&#10;&#9;&#9;c0,0,0,0,0,0c0,0.4-0.2,0.7-0.6,0.8c-0.5,0.1-1,0.3-1.4,0.6C251,161.7,250.9,161.8,250.7,161.8z"/>
	<path class="st0_startup-19" d="M269.6,223.8c-0.1,0-0.1,0-0.2,0c-0.4-0.1-0.6-0.5-0.4-0.9c0,0,0,0,0,0c2.9-9.2,5.2-18.5,7-28&#10;&#9;&#9;c0.1-0.4,0.5-0.6,0.9-0.5c0.3,0.1,0.5,0.4,0.5,0.7c-1.8,9.5-4.1,19-7,28.2C270.2,223.7,269.9,223.8,269.6,223.8z"/>
	<path class="st1_startup-19" d="M255.9,249.9c-0.4,0-0.7-0.3-0.7-0.7v-13.3c0-0.4,0.3-0.7,0.7-0.7s0.7,0.3,0.7,0.7v13.3&#10;&#9;&#9;C256.6,249.6,256.3,249.9,255.9,249.9C255.9,249.9,255.9,249.9,255.9,249.9z"/>
	<path class="st1_startup-19" d="M248.8,256.8c-0.4,0-0.7-0.3-0.7-0.7l0,0v-13.9c0-0.4,0.3-0.7,0.7-0.7c0.4,0,0.7,0.3,0.7,0.7v13.9&#10;&#9;&#9;C249.5,256.5,249.2,256.8,248.8,256.8z"/>
	<path class="st1_startup-19" d="M206,291.1h-0.1c-0.4-0.1-0.6-0.4-0.6-0.8c0.1-0.3,1.5-7.2,7.5-10.3c4.4-2.3,10.1-2,16.8,0.9&#10;&#9;&#9;c0.4,0.1,0.5,0.6,0.4,0.9c0,0,0,0,0,0c-0.2,0.4-0.6,0.5-0.9,0.4c-6.3-2.7-11.6-3.1-15.6-1c-5.4,2.9-6.8,9.3-6.8,9.4&#10;&#9;&#9;C206.6,290.8,206.3,291.1,206,291.1z"/>
	<path class="st1_startup-19" d="M285.5,282.8c-0.2,0-0.4-0.1-0.5-0.2c-10-11-17.5-6.5-17.5-6.5c-0.3,0.2-0.7,0.2-1-0.1c-0.2-0.3-0.2-0.7,0.1-1&#10;&#9;&#9;c0,0,0.1-0.1,0.1-0.1c0.4-0.2,8.6-5.1,19.3,6.7c0.3,0.3,0.2,0.7,0,1C285.9,282.7,285.7,282.8,285.5,282.8L285.5,282.8z"/>
	<path class="st1_startup-19" d="M260,255.1c-0.4,0-0.7-0.3-0.7-0.7c0,0,0,0,0,0v-5.8c0-0.4,0.3-0.7,0.7-0.7c0.4,0,0.7,0.3,0.7,0.7v5.8&#10;&#9;&#9;C260.7,254.7,260.4,255,260,255.1z"/>
</g>
<g id="Character_Male_startup-19">
	<path class="st0_startup-19" d="M362.4,154.9c-1.8-1.3-2.7-3.5-2.5-5.6c-2.1,0.7-4.5-0.7-5.6-2.6c-1-2-1.2-4.3-0.8-6.6&#10;&#9;&#9;c-4.8-2.3-6.8-8.1-4.5-12.9c1.1-2.2,3-4,5.3-4.8c-0.6-0.3-1.1-0.8-1.2-1.5c-1.3-4.2,1.2-8.9,5.1-11s8.6-1.9,12.7-0.4&#10;&#9;&#9;c-0.2-1.1,0.2-2.3,1.1-3c0.9-0.7,2-1.1,3.1-1.3c5.6-1.2,11.5-0.8,16.9,1.2c2.6,1,5.4,2.9,5.2,5.6c4.6-0.7,8.9,2.4,9.6,7&#10;&#9;&#9;c0.4,2.3-0.2,4.6-1.6,6.4c3.9,3.7,4,9.9,0.3,13.8c-1.3,1.4-2.9,2.3-4.8,2.7c0.2-0.6,1.1-0.1,1.4,0.5c1.7,4.3-1.4,9.1-5.3,11.5&#10;&#9;&#9;s-9.6,2.8-12.9-0.5c0.2,2.2-1.6,4.1-3.6,4.8c-2.1,0.5-4.3,0.4-6.4-0.2c-2.1-0.4-4-1.6-6-2S364.2,156.2,362.4,154.9z"/>
	<path class="st2_startup-19" d="M377.9,159.3c-1.4,0-2.8-0.2-4.1-0.5c-1.1-0.3-2.2-0.6-3.2-1.1c-0.9-0.4-1.8-0.7-2.8-0.9&#10;&#9;&#9;c-0.6-0.1-1.3-0.2-1.9-0.2c-1.4,0.1-2.7-0.3-3.9-1.1l0,0c-1.7-1.2-2.8-3.2-2.8-5.3c-2.3,0.1-4.4-1.1-5.5-3.2c-1-2-1.3-4.3-0.9-6.5&#10;&#9;&#9;c-5-2.7-6.9-9-4.1-14c1-1.8,2.5-3.3,4.4-4.3c-0.2-0.3-0.4-0.7-0.5-1.1c-1.3-4.3,1.1-9.4,5.4-11.8c3.8-1.9,8.2-2.2,12.3-0.8&#10;&#9;&#9;c0.2-1,0.7-1.9,1.5-2.5c1-0.7,2.2-1.2,3.4-1.4c5.8-1.2,11.8-0.8,17.3,1.2c3.3,1.2,5.3,3.3,5.6,5.5c5-0.3,9.4,3.4,9.7,8.5&#10;&#9;&#9;c0.1,2-0.4,4-1.5,5.7c3.9,4.2,3.7,10.8-0.5,14.7c-0.9,0.8-1.9,1.5-2.9,1.9c0,0.1,0.1,0.1,0.1,0.2c1.8,4.7-1.5,9.9-5.6,12.3&#10;&#9;&#9;c-3.7,2.2-9,2.9-12.6,0.4c-0.6,1.9-2.1,3.4-4,4C379.7,159.2,378.8,159.3,377.9,159.3z M359.9,148.6c0.2,0,0.3,0.1,0.4,0.2&#10;&#9;&#9;c0.2,0.1,0.3,0.4,0.2,0.6c-0.2,1.9,0.6,3.8,2.2,5l0,0c0.9,0.6,2,0.9,3.1,0.8c0.7,0,1.4,0.1,2.1,0.2c1,0.3,2,0.6,3,1&#10;&#9;&#9;c1,0.4,2,0.8,3,1c2,0.6,4.1,0.6,6.1,0.2c1.7-0.5,3.4-2.2,3.2-4c0-0.3,0.1-0.6,0.4-0.7c0.3-0.1,0.6-0.1,0.8,0.1&#10;&#9;&#9;c3.1,3.1,8.4,2.5,12,0.4s6.5-6.7,5-10.6c0-0.1-0.1-0.2-0.1-0.2l-0.4,0.1c-0.2,0.1-0.5,0-0.7-0.2c-0.2-0.2-0.2-0.4-0.2-0.7&#10;&#9;&#9;c0.1-0.5,0.5-0.8,1-0.8c0.1,0,0.3,0,0.4,0c4.7-1.6,7.2-6.7,5.6-11.4c-0.5-1.4-1.3-2.6-2.3-3.6c-0.3-0.2-0.3-0.6-0.1-0.9&#10;&#9;&#9;c2.6-3.4,1.9-8.3-1.4-10.9c-1.7-1.3-3.8-1.8-5.9-1.5c-0.2,0-0.4,0-0.6-0.2c-0.1-0.2-0.2-0.4-0.2-0.6c0.2-2.3-2.3-4-4.7-4.9&#10;&#9;&#9;c-5.3-2-11-2.4-16.5-1.2c-1,0.2-2,0.5-2.8,1.1c-0.7,0.5-1.1,1.4-0.9,2.3c0.1,0.3,0,0.5-0.2,0.7c-0.2,0.2-0.5,0.2-0.7,0.1&#10;&#9;&#9;c-4.4-1.6-8.8-1.5-12.1,0.3c-3.8,2.1-5.8,6.5-4.7,10.2c0.1,0.3,0.3,0.9,0.7,1c0.4,0.1,0.6,0.5,0.4,0.9c-0.1,0.2-0.2,0.4-0.4,0.4&#10;&#9;&#9;c-4.6,1.8-7,7-5.2,11.6c0.8,2.1,2.4,3.8,4.4,4.9c0.3,0.1,0.4,0.4,0.4,0.7c-0.5,2.1-0.2,4.2,0.7,6.1c0.9,1.6,2.9,2.9,4.8,2.3&#10;&#9;&#9;C359.7,148.5,359.8,148.5,359.9,148.6L359.9,148.6z"/>
	<path class="st3_startup-19 targetColor" d="M353.9,171.4c0,0-23.9,42.9-27.1,50.4s11,24.9,16.5,20.7S353.9,171.4,353.9,171.4z" style="fill: rgb(104, 225, 253);"/>
	<path class="st0_startup-19" d="M399.7,395.1c0,0,0.9,6.3-0.5,8.7s-2.7,5.5-3.3,11.1c2.3,2.6,5.5,4.2,9,4.2c5.7,0,11.3-4.4,12-6.5&#10;&#9;&#9;s-4.6-24.4-4.6-24.4L399.7,395.1z"/>
	<path class="st2_startup-19" d="M404.9,419.8c-3.6-0.1-7.1-1.7-9.5-4.4c-0.1-0.1-0.1-0.3-0.1-0.5c0.7-6.1,2.1-9.2,3.4-11.4&#10;&#9;&#9;c1.1-1.8,0.6-6.6,0.4-8.3c0-0.3,0.1-0.5,0.3-0.6l12.6-6.8c0.3-0.2,0.7,0,0.9,0.3c0,0,0,0.1,0.1,0.2c0.9,3.8,5.2,22.6,4.5,24.7&#10;&#9;&#9;C416.7,415.2,410.8,419.8,404.9,419.8z M396.6,414.8c2.1,2.3,5.1,3.7,8.3,3.8c5.4,0,10.8-4.3,11.3-6c0.4-1.2-2-12.8-4.4-23.3&#10;&#9;&#9;l-11.5,6.2c0.2,1.5,0.7,6.5-0.6,8.7S397.2,409.1,396.6,414.8L396.6,414.8z"/>
	<path class="st2_startup-19" d="M360.7,242.2l27.3,7.8l6.3-81c0,0-22.6-5.5-28-2.9S360.7,242.2,360.7,242.2z"/>
	<path class="st2_startup-19" d="M388,250.6c-0.1,0-0.1,0-0.2,0l-27.2-7.8c-0.3-0.1-0.5-0.4-0.5-0.7c0-12.4,0.4-74.1,6-76.8s27.5,2.6,28.5,2.9&#10;&#9;&#9;c0.3,0.1,0.6,0.4,0.5,0.7l-6.3,81c0,0.2-0.1,0.4-0.3,0.5C388.3,250.6,388.1,250.6,388,250.6z M361.4,241.6l25.9,7.4l6.2-79.6&#10;&#9;&#9;c-6.6-1.6-22.8-4.8-27-2.8C363.3,168.2,361.5,206.4,361.4,241.6L361.4,241.6z"/>
	<path class="st0_startup-19" d="M369.8,380.5v19l-8.8,2.6l0.2-3.9l-4,4.1c0,0-23.7,4.4-23.5,1.1s2.5-5,5.5-6.6c3.2-1.7,11.6-6.6,11.6-6.6&#10;&#9;&#9;l1.2-13.9"/>
	<path class="st2_startup-19" d="M338.1,405.2c-2.2,0-3.9-0.2-4.6-0.8c-0.3-0.2-0.5-0.6-0.5-1c0.1-3.6,2.9-5.6,5.8-7.2s9.8-5.6,11.3-6.5&#10;&#9;&#9;l1.2-13.6c0-0.3,0.3-0.6,0.7-0.6c0.3,0,0.6,0.3,0.6,0.7l-1.3,13.9c0,0.2-0.1,0.4-0.3,0.5c-0.1,0-8.5,4.9-11.7,6.6&#10;&#9;&#9;c-3,1.6-5,3.3-5.2,6.1c0.7,1.2,11,0.4,22.6-1.8l3.8-4c0.2-0.2,0.5-0.2,0.7-0.1c0.2,0.1,0.4,0.4,0.4,0.6l-0.2,3l7.5-2.2v-18.5&#10;&#9;&#9;c0-0.4,0.3-0.6,0.6-0.6c0.4,0,0.6,0.3,0.6,0.6v19c0,0.3-0.2,0.5-0.5,0.6l-8.8,2.6c-0.2,0.1-0.4,0-0.6-0.1c-0.2-0.1-0.3-0.3-0.2-0.5&#10;&#9;&#9;l0.1-2.2l-2.8,2.9c-0.1,0.1-0.2,0.2-0.3,0.2C354.7,403.4,344.3,405.2,338.1,405.2z"/>
	<path class="st2_startup-19" d="M412.1,249.8l7.3,144c0,0-0.7,5.3-11.8,5.9s-10-2-10-2l-17.3-105.7l-7.1,93.8l-24,1.5l4.8-147.8L412.1,249.8z"/>
	<path class="st2_startup-19" d="M404.3,400.5c-4,0-6.4-0.6-7.2-1.7c-0.2-0.3-0.3-0.7-0.3-1.1L380.5,298l-6.7,88c0,0.3-0.3,0.6-0.6,0.6l-24,1.5&#10;&#9;&#9;c-0.2,0-0.4-0.1-0.5-0.2c-0.1-0.1-0.2-0.3-0.2-0.5l4.8-147.8c0-0.2,0.1-0.4,0.2-0.5c0.2-0.1,0.4-0.2,0.6-0.1l58.2,10.3&#10;&#9;&#9;c0.3,0.1,0.6,0.3,0.6,0.6l7.3,144c0,0.4-0.9,6-12.5,6.6C406.4,400.5,405.3,400.5,404.3,400.5z M398.2,397.9c0,0,0.1,0.1,0.1,0.1&#10;&#9;&#9;c0.4,0.4,2.2,1.3,9.1,0.9c10.3-0.6,11.1-5.3,11.2-5.3l-7.2-143.3l-56.9-10l-4.7,146.3l22.6-1.4l7.1-93.3c0-0.4,0.4-0.7,0.7-0.7&#10;&#9;&#9;c0.3,0,0.6,0.3,0.6,0.6l17.3,105.6C398.2,397.6,398.2,397.8,398.2,397.9L398.2,397.9z"/>
	<path class="st3_startup-19 targetColor" d="M389.4,161.2c0,0-9.4,97.8-5.1,103.4s30,10,32-0.8c3.2-17.9,1.5-82-2.3-88.1&#10;&#9;&#9;C398.8,162.3,389.4,161.2,389.4,161.2z" style="fill: rgb(104, 225, 253);"/>
	<path class="st3_startup-19 targetColor" d="M353.9,171.4c0,0-13.4,88.8-10.9,91.4s16.2,6.1,20,3.5s9-104.5,9-104.5C365.2,163.2,358.9,166.5,353.9,171.4z" style="fill: rgb(104, 225, 253);"/>
	<path class="st0_startup-19" d="M372.7,159.9l-1.1,9.5c1.3,3.9,5.4,6.1,9.3,5.1c7.2-1.5,7.3-5.7,7.3-5.7s1-21.4,1-21.4c0-0.4-0.5-1.1-0.7-1.4&#10;&#9;&#9;c-1.1-2.4-2.6-5.8-2.1-8.5c0.4-2.2,1.5-4.3,3.2-5.8c-3.1,1.4-6.7,0-8-3.1c-0.2-0.5-0.4-1-0.5-1.6c0,1-0.9,1.7-1.7,2.2&#10;&#9;&#9;c-1.2,0.9-2.7,1.4-4.2,1.4c-2-0.2-3.5-1.9-5.3-2.7c0.6,1.3,0.1,2.9-1.1,3.7c-1.2,0.7-2.6,0.9-4,0.6c0.9,0.2,0.1,10.3,0.1,11.1&#10;&#9;&#9;c-0.1,3.1-0.1,6.3,0.2,9.4C365.7,158.4,372.7,159.9,372.7,159.9z"/>
	<path class="st2_startup-19" d="M378.8,175.4c-6,0-7.9-5.8-7.9-5.8c0-0.1,0-0.2,0-0.3l1.1-8.9c-1.8-0.5-7-2.5-7.6-7.6&#10;&#9;&#9;c-0.3-2.9-0.3-5.9-0.2-8.8v-0.7c0-0.1,0-0.5,0-1.1c0.4-6.8,0.3-8.9,0.1-9.5c-0.3-0.2-0.4-0.7-0.1-1c0.2-0.2,0.4-0.3,0.7-0.3l0,0&#10;&#9;&#9;c1.2,0.3,2.4,0.1,3.5-0.5c0.9-0.6,1.3-1.7,0.9-2.7c-0.2-0.3-0.1-0.6,0.1-0.8c0.2-0.2,0.5-0.3,0.8-0.2c0.8,0.3,1.5,0.8,2.2,1.3&#10;&#9;&#9;c0.9,0.7,1.9,1.1,2.9,1.4c1.3,0,2.7-0.4,3.7-1.2c0.9-0.6,1.4-1.1,1.4-1.6c0-0.4,0.3-0.7,0.6-0.7c0.4,0,0.7,0.2,0.8,0.6&#10;&#9;&#9;c0.4,2.9,3.2,5,6.1,4.5c0.5-0.1,0.9-0.2,1.4-0.4c0.4-0.2,0.8,0,0.9,0.4c0.1,0.3,0.1,0.6-0.2,0.8c-1.6,1.4-2.6,3.3-2.9,5.4&#10;&#9;&#9;c-0.4,2.4,1,5.5,2,7.8l0.1,0.3c0.1,0.1,0.1,0.2,0.2,0.4c0.3,0.4,0.5,0.9,0.5,1.4c0,0,0,0.1-1,21.5c0,0.2-0.2,4.8-7.9,6.4&#10;&#9;&#9;C380.3,175.3,379.5,175.4,378.8,175.4z M372.2,169.3c1.2,3.5,4.9,5.5,8.5,4.5c6.5-1.4,6.8-4.9,6.8-5s1-21.1,1-21.4&#10;&#9;&#9;c0-0.1-0.2-0.4-0.4-0.6s-0.2-0.4-0.3-0.5l-0.1-0.3c-1.1-2.4-2.6-5.8-2.1-8.6c0.3-1.6,0.9-3.1,1.9-4.5c-1.3,0.1-2.6-0.2-3.8-0.8&#10;&#9;&#9;c-1.3-0.7-2.3-1.8-2.9-3.1c-0.3,0.3-0.7,0.6-1.1,0.9c-1.3,1-3,1.5-4.6,1.5c-1.3-0.2-2.5-0.8-3.5-1.6l-0.7-0.5&#10;&#9;&#9;c-0.1,1.2-0.7,2.3-1.7,2.9c-1,0.6-2.2,0.9-3.4,0.8c0.2,3.1,0.1,6.2-0.1,9.3c0,0.5,0,0.9,0,1v0.7c-0.1,2.9,0,5.7,0.2,8.6&#10;&#9;&#9;c0.6,5.2,7.1,6.6,7.1,6.6c0.4,0.1,0.6,0.4,0.5,0.8L372.2,169.3z M364.5,132.8L364.5,132.8z"/>
	<path class="st0_startup-19" d="M371.4,142.5c0,0-4.1,5.5-3.4,6.5s3.4,0.6,3.4,0.6"/>
	<path class="st2_startup-19" d="M370.2,150.4c-1,0.1-2-0.3-2.7-1c-1-1.2,1.3-4.7,3.3-7.4c0.2-0.3,0.7-0.4,1-0.2c0,0,0,0,0,0&#10;&#9;&#9;c0.3,0.2,0.4,0.7,0.2,1c0,0,0,0,0,0c-1.9,2.5-3.4,5.2-3.3,5.8c0.3,0.4,1.8,0.4,2.6,0.2c0.4-0.1,0.7,0.2,0.8,0.6s-0.2,0.7-0.6,0.8&#10;&#9;&#9;l0,0C371.1,150.4,370.6,150.4,370.2,150.4z"/>
	<path class="st2_startup-19" d="M372.7,159.9c0,0,5.6,0,8.2-1.5c0,0-2.2,6.5-8.2,8.1L372.7,159.9z"/>
	<path class="st2_startup-19" d="M372.6,167.2c-0.2,0-0.3-0.1-0.4-0.1c-0.2-0.1-0.3-0.3-0.3-0.6l0.1-6.6c0-0.4,0.3-0.7,0.7-0.7l0,0&#10;&#9;&#9;c0.3,0,5.5,0,7.8-1.4c0.3-0.2,0.6-0.1,0.8,0.1c0.2,0.2,0.3,0.5,0.2,0.8c-0.1,0.3-2.4,6.9-8.7,8.6L372.6,167.2z M373.4,160.6l0,5&#10;&#9;&#9;c2.7-1.2,4.9-3.2,6.2-5.9C377.5,160.3,375.4,160.6,373.4,160.6L373.4,160.6z"/>
	<path class="st2_startup-19" d="M419.5,240.2L419.5,240.2c-1-0.1-22.3-2.6-29-6.4c-0.3-0.2-0.5-0.6-0.3-0.9s0.6-0.5,0.9-0.3c0,0,0.1,0,0.1,0&#10;&#9;&#9;c6.5,3.6,28.2,6.2,28.4,6.2c0.4,0.1,0.6,0.4,0.6,0.8C420.1,239.9,419.8,240.2,419.5,240.2z"/>
	<path class="st3_startup-19 targetColor" d="M413.8,175.7c0,0,42.2,60.2,24.1,75.8c-16.6,14.2-53.2-9.4-53.2-9.4l2.2-20c0,0,29,16.1,29.5,8.6&#10;&#9;&#9;c0.7-11.1-13.5-26.2-13.5-26.2c-2.6-4.9-3-10.7-1.3-16C403.3,182.4,407.9,177.6,413.8,175.7z" style="fill: rgb(104, 225, 253);"/>
	<path class="st2_startup-19" d="M348,224.2h-0.1c-0.4-0.1-0.6-0.4-0.6-0.8c1.3-8.8,7.6-42.1,7.6-42.4c0.1-0.4,0.4-0.6,0.8-0.6&#10;&#9;&#9;c0.4,0.1,0.6,0.4,0.6,0.8c0,0,0,0,0,0c-0.1,0.3-6.3,33.7-7.6,42.4C348.6,223.9,348.3,224.2,348,224.2z"/>
	<path class="st0_startup-19" d="M342.1,250.6h42.1c2.9-0.1,5.3-2.5,5.2-5.4c0-0.3,0-0.7-0.1-1l-9-43.3c-0.5-2.6-2.7-4.4-5.4-4.5h-41.4&#10;&#9;&#9;c-3.1,0.1-5.6,2.6-5.5,5.7c0,0.4,0.1,0.7,0.1,1.1l8.9,43.1C337.5,248.8,339.6,250.5,342.1,250.6z"/>
	<path class="st2_startup-19" d="M384.2,251.2h-42.1c-2.8,0-5.1-2-5.7-4.7l-8.9-43.1c-0.4-1.9,0.1-3.8,1.3-5.3c1.1-1.4,2.9-2.3,4.7-2.3h41.5&#10;&#9;&#9;c2.9,0,5.4,2.1,6,5l8.9,43.2c0.4,1.8-0.1,3.7-1.2,5.1C387.5,250.4,385.9,251.2,384.2,251.2z M333.4,197c-1.4,0-2.8,0.7-3.7,1.8&#10;&#9;&#9;c-1,1.2-1.3,2.8-1,4.3l8.9,43.1c0.4,2.1,2.3,3.7,4.5,3.7h42.1c1.3,0,2.6-0.6,3.5-1.7c0.9-1.1,1.3-2.6,1-4l-9-43.2&#10;&#9;&#9;c-0.4-2.3-2.4-4-4.7-4H333.4z"/>
	<path class="st0_startup-19" d="M392.8,228.8c0.3-1.5,0.1-3.1-0.3-4.5c-0.5-1-1.1-1.9-1.9-2.6c-1.3-1.4-2.7-2.7-4.2-3.9&#10;&#9;&#9;c-1.3-1.1-3-2.2-4.6-1.8c0.5,2.5,1.9,4.7,4,6.2c-0.7-0.8-1.6-1.4-2.6-1.7c-0.7-0.2-1.6-0.2-1.9,0.5c-0.1,0.4-0.1,0.9,0.2,1.3&#10;&#9;&#9;c0.8,1.7,2,3.3,3.5,4.4l-1.6-1c-0.4-0.3-0.9-0.5-1.4-0.6c-0.5-0.1-1,0.2-1.2,0.6c-0.1,0.4-0.1,0.8,0.1,1.1c0.4,1,1.1,1.9,2,2.5&#10;&#9;&#9;c-0.6-0.5-1.3-0.8-2-1c-0.8-0.1-1.5,0.3-1.8,1.1c0,0.4,0,0.9,0.2,1.2c1.2,2.4,4.1,2.7,5.5,4.7c1,1.5,0.6,3.1,2.7,4&#10;&#9;&#9;C392.8,241.6,392.5,232,392.8,228.8z"/>
	<path class="st2_startup-19" d="M389,240.4c-0.6,0-1.2-0.1-1.7-0.4c-1.2-0.5-2.1-1.6-2.4-2.8c-0.1-0.5-0.4-1-0.6-1.4c-0.6-0.8-1.4-1.4-2.3-1.8&#10;&#9;&#9;c-1.3-0.6-2.5-1.7-3.2-2.9c-0.3-0.5-0.4-1.1-0.3-1.7c0.2-1,1.1-1.6,2.1-1.7c-0.1-0.2-0.2-0.4-0.3-0.5c-0.2-0.5-0.3-1.1-0.1-1.6&#10;&#9;&#9;c0.3-0.7,1-1.1,1.7-1.1c-0.4-0.6-0.7-1.2-1-1.8c-0.3-0.6-0.4-1.3-0.2-1.9c0.3-0.7,1.1-1.1,1.8-1c-0.7-1.1-1.2-2.3-1.4-3.6&#10;&#9;&#9;c-0.1-0.4,0.2-0.7,0.5-0.8c2-0.4,3.9,0.8,5.2,1.9c1.5,1.2,2.9,2.6,4.3,4c0.8,0.8,1.5,1.8,2,2.9c0.5,1.6,0.6,3.2,0.4,4.8l0,0&#10;&#9;&#9;c0,0.4-0.1,0.9-0.1,1.5c-0.2,3.2-0.5,8.1-2.9,9.6C390.1,240.3,389.6,240.4,389,240.4z M380.7,229c-0.4,0-0.8,0.2-0.9,0.6&#10;&#9;&#9;c0,0.3,0,0.5,0.2,0.8c0.6,1,1.6,1.8,2.7,2.4c1.1,0.5,2,1.3,2.8,2.2c0.4,0.6,0.6,1.2,0.8,1.8c0.1,0.9,0.7,1.7,1.6,2&#10;&#9;&#9;c0.6,0.3,1.4,0.3,2,0c1.8-1.1,2-5.9,2.2-8.5c0-0.6,0.1-1.1,0.1-1.5c0.2-1.4,0.1-2.8-0.3-4.2c-0.4-0.9-1-1.7-1.7-2.4&#10;&#9;&#9;c-1.3-1.4-2.6-2.6-4.1-3.8c-0.9-0.9-2.1-1.5-3.3-1.7c0.4,1.5,1.2,2.8,2.3,3.9c0.5,0.3,1,0.7,1.4,1.2c0.2,0.3,0.2,0.7-0.1,1&#10;&#9;&#9;c-0.2,0.2-0.6,0.2-0.8,0c-0.5-0.3-0.9-0.7-1.3-1.1c-0.3-0.2-0.7-0.4-1-0.5c-0.5-0.1-0.9-0.1-1,0.1s0,0.4,0.2,0.7&#10;&#9;&#9;c0.7,1.6,1.9,3.1,3.3,4.1c0.3,0.2,0.4,0.7,0.2,1c0,0,0,0,0,0c-0.2,0.3-0.6,0.4-1,0.2l-1.6-1c-0.3-0.2-0.7-0.4-1.1-0.5&#10;&#9;&#9;c-0.2,0-0.4,0-0.5,0.2c0,0.1,0,0.2,0.1,0.6c0.3,0.8,0.9,1.5,1.6,2.1l0.2,0.1c0.3,0.2,0.4,0.7,0.2,1c0,0,0,0,0,0&#10;&#9;&#9;c-0.2,0.3-0.6,0.4-1,0.2c0,0,0,0,0,0l-0.2-0.1c-0.4-0.4-1-0.6-1.5-0.7L380.7,229z M392.8,228.8L392.8,228.8z"/>
	<path class="st0_startup-19" d="M328.7,225.8c0.2-2.9,1.1-6.1,3.5-7.6c1.5-0.9,3.4-0.9,5-0.1c0.3,0.1,0.5,0.4,0.6,0.6c0.1,0.4-0.3,0.8-0.7,1.1&#10;&#9;&#9;c-0.8,0.5-1.7,0.9-2.6,1.1c1.5-0.1,3,0.7,3.6,2.1c-0.9,1.1-2.2,1.8-3.6,2c0.9-0.2,1.9,0.1,2.5,0.9c0.9,1.3,0.2,1.7-0.8,2.5&#10;&#9;&#9;c0.4-0.1,0.9,0,1.3,0.1c0.4,0.2,0.7,0.6,0.7,1.1c-0.1,0.8-1.1,1.1-1.8,1.5c-0.6,0.3-1,0.9-1.2,1.5c-0.1,0.4-0.2,0.7-0.4,1.1&#10;&#9;&#9;c-1.4,2.5-4.5,0.4-5.3-1.3C328.8,230.4,328.5,228.1,328.7,225.8z"/>
	<path class="st2_startup-19" d="M333.1,235.7h-0.2c-1.7-0.2-3.2-1.3-3.9-2.9c-0.8-2.2-1.2-4.6-0.9-7l0,0c0.2-2.8,1-6.4,3.9-8.1&#10;&#9;&#9;c1.7-1,3.9-1.1,5.7-0.1c0.5,0.2,0.9,0.6,1,1.1c0.1,0.4,0.1,1.1-1,1.8c-0.2,0.1-0.4,0.2-0.6,0.4c0.8,0.5,1.5,1.2,1.9,2.1&#10;&#9;&#9;c0.1,0.2,0.1,0.5-0.1,0.7c-0.5,0.5-1,1-1.6,1.4c0.2,0.2,0.4,0.4,0.6,0.6c0.7,1.1,0.6,1.8,0.2,2.4l0,0c0.7,0.3,1.1,1,1.1,1.8&#10;&#9;&#9;c-0.1,1-1,1.5-1.7,1.8l-0.5,0.2c-0.4,0.3-0.8,0.7-0.9,1.2l-0.1,0.3c-0.1,0.3-0.2,0.6-0.3,0.9C335.1,235.1,334.1,235.7,333.1,235.7z&#10;&#9;&#9; M329.4,225.9c-0.2,2.1,0.1,4.3,0.8,6.3c0.5,1.1,1.6,1.9,2.8,2.1c0.6,0,1.1-0.3,1.3-0.8c0.1-0.2,0.1-0.3,0.2-0.5&#10;&#9;&#9;c0-0.1,0.1-0.3,0.1-0.4c0.3-0.8,0.8-1.5,1.5-1.9c0.2-0.1,0.4-0.2,0.6-0.3c0.5-0.3,0.9-0.4,0.9-0.7c0-0.2-0.1-0.3-0.3-0.4&#10;&#9;&#9;c-0.3-0.1-0.6-0.1-0.9-0.1c-0.3,0-0.6-0.1-0.8-0.4c-0.1-0.3,0-0.6,0.2-0.8l0.3-0.2c0.9-0.7,0.9-0.7,0.4-1.3s-0.9-0.7-1.9-0.6&#10;&#9;&#9;c-0.4,0.1-0.8-0.1-0.8-0.5s0.1-0.8,0.5-0.8c0,0,0.1,0,0.2,0c1.1-0.1,2.1-0.6,2.8-1.4c-0.6-0.9-1.6-1.4-2.7-1.3&#10;&#9;&#9;c-0.4,0-0.7-0.2-0.8-0.6c-0.1-0.4,0.2-0.7,0.5-0.8c0.9-0.2,1.7-0.6,2.4-1.1c0.2-0.1,0.3-0.2,0.4-0.4c-0.1-0.1-0.2-0.1-0.3-0.2&#10;&#9;&#9;c-1.4-0.7-3-0.7-4.3,0.1C330.3,220.3,329.6,223.4,329.4,225.9L329.4,225.9z"/>
	<path class="st2_startup-19" d="M365.2,145.1c-2.9,0-5.2-2.3-5.2-5.2c0-2.9,2.3-5.2,5.2-5.2c2.9,0,5.2,2.3,5.2,5.2c0,0,0,0,0,0&#10;&#9;&#9;C370.4,142.8,368.1,145.1,365.2,145.1z M365.2,136.1c-2.1,0-3.8,1.7-3.8,3.8s1.7,3.8,3.8,3.8c2.1,0,3.8-1.7,3.8-3.8&#10;&#9;&#9;C369,137.8,367.3,136.1,365.2,136.1C365.2,136.1,365.2,136.1,365.2,136.1L365.2,136.1z"/>
	<path class="st2_startup-19" d="M376.7,145.1c-2.9,0-5.2-2.3-5.2-5.2c0-2.9,2.3-5.2,5.2-5.2c2.9,0,5.2,2.3,5.2,5.2c0,0,0,0,0,0&#10;&#9;&#9;C381.9,142.8,379.6,145.1,376.7,145.1z M376.7,136.1c-2.1,0-3.8,1.7-3.8,3.8c0,2.1,1.7,3.8,3.8,3.8c2.1,0,3.8-1.7,3.8-3.8&#10;&#9;&#9;c0,0,0,0,0,0C380.5,137.8,378.8,136.1,376.7,136.1L376.7,136.1z"/>
	<path class="st2_startup-19" d="M372.1,153.6c-1.8,0-3.6-0.5-5.1-1.3c-0.3-0.2-0.4-0.6-0.3-0.9c0.2-0.3,0.6-0.5,0.9-0.3c0,0,0,0,0,0&#10;&#9;&#9;c0.3,0.1,6.5,3.6,10.3-2.2c0.2-0.3,0.6-0.4,1-0.2c0.3,0.2,0.4,0.6,0.2,1l0,0C377.6,152.1,375,153.6,372.1,153.6z"/>
	<path class="st2_startup-19" d="M372.2,140.6h-2.6c-0.4,0-0.7-0.3-0.7-0.7s0.3-0.7,0.7-0.7c0,0,0,0,0,0h2.6c0.4,0,0.7,0.3,0.7,0.7&#10;&#9;&#9;S372.6,140.6,372.2,140.6C372.2,140.6,372.2,140.6,372.2,140.6z"/>
	<path class="st2_startup-19" d="M391.5,143.4c-0.1,0-0.1,0-0.2,0l-10.4-2.8c-0.4-0.1-0.6-0.5-0.5-0.8c0,0,0,0,0,0c0.1-0.4,0.5-0.6,0.9-0.5&#10;&#9;&#9;l10.3,2.8c0.4,0.1,0.6,0.5,0.5,0.9c0,0,0,0,0,0C392.1,143.2,391.8,143.4,391.5,143.4z"/>
	<path class="st0_startup-19" d="M385.8,144.4c0.3-1,0.9-1.9,1.7-2.5c1.2-0.9,3.1-1.7,4.5-1.3c1.7,0.5,2.5,2.5,2.3,4.2c-0.2,2.4-1.8,4.4-4,5.4&#10;&#9;&#9;c-1.4,0.5-3,0.4-4.4-0.3"/>
	<path class="st2_startup-19" d="M388.5,151.2c-1,0-1.9-0.2-2.8-0.7c-0.3-0.2-0.5-0.6-0.3-0.9c0.2-0.3,0.6-0.5,0.9-0.3c0,0,0,0,0,0&#10;&#9;&#9;c1.2,0.6,2.6,0.7,3.8,0.2c1.9-0.8,3.3-2.7,3.5-4.8c0.1-1.4-0.5-3.1-1.8-3.4c-1.4-0.2-2.8,0.2-3.9,1.2c-0.7,0.5-1.2,1.3-1.4,2.1&#10;&#9;&#9;c-0.1,0.4-0.5,0.6-0.8,0.5c0,0,0,0,0,0c-0.4-0.1-0.6-0.5-0.5-0.9c0.3-1.1,1-2.2,1.9-2.9c1.4-1,3.5-1.9,5.2-1.4c2.1,0.6,3,3,2.8,4.9&#10;&#9;&#9;c-0.3,2.6-2,4.9-4.4,5.9C389.9,151,389.2,151.2,388.5,151.2z"/>
	<path class="st2_startup-19" d="M412.1,232.9c-6.5,0-15.9-5.2-17.3-6c-0.3-0.2-0.5-0.6-0.3-1c0.2-0.3,0.6-0.5,1-0.3c4.5,2.6,17,8.4,20.3,4.5&#10;&#9;&#9;s-6.6-23.1-10.7-30.1c-0.2-0.3,0-0.8,0.3-0.9c0.3-0.2,0.7-0.1,0.9,0.2c1.6,2.7,15.1,26.3,10.5,31.7&#10;&#9;&#9;C415.7,232.4,413.9,233,412.1,232.9z"/>
	<path class="st2_startup-19" d="M417,256.7h-0.1c-10.3-1.6-23.8-9.8-24.4-10.1c-0.3-0.2-0.4-0.6-0.2-1c0.2-0.3,0.6-0.4,1-0.2&#10;&#9;&#9;c0.1,0.1,13.8,8.4,23.9,9.9c0.4,0.1,0.6,0.4,0.6,0.8C417.7,256.4,417.4,256.7,417,256.7L417,256.7z"/>
</g>
<g id="Character_Female_startup-19">
	<rect x="51.1" y="275.9" transform="matrix(0.229 -0.9734 0.9734 0.229 -237.65 301.6912)" class="st0_startup-19" width="41.1" height="50"/>
	<path class="st2_startup-19" d="M91.2,327.2c0,0-0.1,0-0.1,0l-48.6-11.5c-0.3-0.1-0.5-0.4-0.5-0.8l9.4-40c0.1-0.3,0.4-0.6,0.8-0.5c0,0,0,0,0,0&#10;&#9;&#9;l48.6,11.5c0.2,0,0.3,0.1,0.4,0.3c0.1,0.1,0.1,0.3,0.1,0.5l-9.4,40c0,0.2-0.1,0.3-0.3,0.4C91.5,327.2,91.3,327.3,91.2,327.2z&#10;&#9;&#9; M43.4,314.7l47.4,11.1l9.1-38.8l-47.4-11.1L43.4,314.7z"/>
	<path class="st0_startup-19" d="M81.6,267.4c0,0-0.8,20.6-2.9,19.4c-2.8-1.6-1.7-6.4-1.7-6.4l-9.5-2c0,0,4-13.7,4.3-14.2&#10;&#9;&#9;S81.6,267.4,81.6,267.4z"/>
	<path class="st2_startup-19" d="M78.8,287.5c-0.2,0-0.3-0.1-0.5-0.1c-2.6-1.5-2.3-5-2.1-6.5l-8.9-1.9c-0.2,0-0.3-0.1-0.4-0.3&#10;&#9;&#9;c-0.1-0.2-0.1-0.3-0.1-0.5c1.5-5.1,4.1-13.9,4.4-14.3s0.5-0.9,10.6,2.9c0.3,0.1,0.4,0.3,0.4,0.6c-0.2,5.6-0.9,18.9-2.9,20&#10;&#9;&#9;C79.1,287.5,79,287.6,78.8,287.5z M68.3,278l8.8,1.9c0.2,0,0.3,0.1,0.4,0.3c0.1,0.1,0.1,0.3,0.1,0.5c0,0-1,4.1,1.2,5.6&#10;&#9;&#9;c0.9-1.4,1.8-10.3,2.2-18.3c-3.6-1.4-7.5-2.7-8.7-3C71.7,266.5,69.7,273.1,68.3,278z"/>
	<path class="st0_startup-19" d="M96.2,383.5c0,0-0.8,12.9-0.7,17.8s0,9.5,5.7,8.4c3.1-0.6,20.4-4.9,18.8-8.1s-12.8-4-12.8-4l1-14.8"/>
	<path class="st2_startup-19" d="M99.7,410.5c-1,0.1-2.1-0.3-2.9-0.9c-1.9-1.6-1.9-4.8-2-8.1v-0.2c0-4.9,0.7-17.8,0.7-17.9&#10;&#9;&#9;c0-0.4,0.3-0.6,0.7-0.6s0.6,0.3,0.6,0.7l0,0c0,0.1-0.8,13-0.7,17.8v0.2c0,3.1,0.1,6,1.5,7.1c0.8,0.6,1.9,0.8,3.5,0.5&#10;&#9;&#9;c4.1-0.7,17-4.4,18.3-6.8c0.1-0.1,0.1-0.3,0-0.4c-1-2.1-8.1-3.4-12.2-3.7c-0.4,0-0.6-0.3-0.6-0.7l1-14.8c0-0.3,0.3-0.6,0.7-0.6&#10;&#9;&#9;c0.3,0,0.6,0.3,0.6,0.7l-1,14.2c2.6,0.2,11.1,1.2,12.7,4.3c0.2,0.5,0.2,1,0,1.5c-1.9,3.8-19,7.5-19.2,7.5&#10;&#9;&#9;C100.8,410.5,100.2,410.5,99.7,410.5z"/>
	<path class="st0_startup-19" d="M136.5,385c0,0-0.8,12.9-0.7,17.8s0,9.5,5.8,8.4c3.1-0.6,21.7-3.5,20.1-6.7s-14.1-5.4-14.1-5.4l1-14.8"/>
	<path class="st2_startup-19" d="M139.9,412.1c-1,0-2.1-0.3-2.9-0.9c-1.9-1.6-1.9-4.8-1.9-8.1v-0.2c0-4.9,0.7-17.8,0.7-17.9&#10;&#9;&#9;c0-0.4,0.3-0.6,0.7-0.6s0.6,0.3,0.6,0.7l0,0c0,0.1-0.8,13-0.7,17.8v0.1c0,3.1,0.1,6,1.5,7.1c0.8,0.6,1.9,0.8,3.5,0.5l1-0.2&#10;&#9;&#9;c14.5-2.5,18.1-4.4,18.7-5.4c0.1-0.1,0.1-0.2,0-0.2c-1.1-2.1-8.9-4.2-13.7-5.1c-0.3-0.1-0.6-0.4-0.5-0.7l1-14.8&#10;&#9;&#9;c0-0.4,0.3-0.6,0.7-0.6s0.6,0.3,0.6,0.7l0,0l-1,14.2c2.7,0.5,12.5,2.6,14,5.7c0.2,0.4,0.2,0.9,0,1.4c-1,2-7.1,3.9-19.6,6.1l-1,0.2&#10;&#9;&#9;C141,412,140.5,412.1,139.9,412.1z"/>
	<path class="st2_startup-19" d="M94.6,237.4c0,0-4,137.8-1.9,149.6c0,0,8.1,9.1,18.6,4.6l13.2-111.8l7,111.7c0,0,6.7,6.7,20.8-4.4V232.6&#10;&#9;&#9;L94.6,237.4z"/>
	<path class="st2_startup-19" d="M137.6,394.2c-2.4,0.1-4.7-0.7-6.6-2.2c-0.1-0.1-0.2-0.3-0.2-0.5l-6.5-103.9L112,391.7c0,0.2-0.2,0.5-0.4,0.6&#10;&#9;&#9;c-10.8,4.7-19.3-4.6-19.4-4.8c-0.1-0.1-0.1-0.2-0.2-0.3c-2.1-11.7,1.7-144.1,1.9-149.8c0-0.4,0.3-0.6,0.6-0.7l57.7-4.9&#10;&#9;&#9;c0.4,0,0.7,0.3,0.8,0.6c0,0,0,0,0,0.1v154.5c0,0.2-0.1,0.4-0.3,0.5C146.1,392.8,141.1,394.2,137.6,394.2z M132.2,391.2&#10;&#9;&#9;c1.1,0.9,7.3,5,19.4-4.4V233.3l-56.3,4.8c-0.3,10.1-3.8,136.2-1.9,148.6c1.1,1.1,8.1,8.1,17.2,4.4l13.2-111.4&#10;&#9;&#9;c0-0.4,0.3-0.6,0.7-0.6c0,0,0,0,0,0c0.4,0,0.7,0.3,0.7,0.7L132.2,391.2z"/>
	<path class="st0_startup-19" d="M212,178c0,0,7.7-4.3,8.2-4.8s3.2-7.6,3.7-8s1.5-1.3,1.9-0.3s-0.4,6.4-0.4,6.4s9.4-7.4,10.1-7s1.2,1.2-0.3,3.3&#10;&#9;&#9;c-1.3,1.6-2.9,3-4.7,4.1c0,0,3.3,3.7,2.9,5s-13.1,9.7-13.1,9.7"/>
	<path class="st2_startup-19" d="M220.2,187c-0.2,0-0.4-0.1-0.5-0.3c-0.2-0.3-0.1-0.7,0.2-0.9c6-4,12.4-8.6,12.9-9.4c0.1-0.4-1.2-2.5-2.8-4.3&#10;&#9;&#9;c-0.1-0.1-0.2-0.3-0.1-0.5c0-0.2,0.1-0.4,0.3-0.4c1.7-1.1,3.2-2.4,4.5-3.9c0.9-1.2,0.9-1.8,0.8-2c0-0.1-0.1-0.2-0.1-0.3&#10;&#9;&#9;c-1.1,0.5-5.6,3.7-9.5,6.8c-0.3,0.2-0.7,0.1-0.9-0.2c-0.1-0.1-0.1-0.3-0.1-0.4c0.4-2,0.5-4.1,0.5-6.1c-0.1,0-0.5,0.2-0.8,0.5&#10;&#9;&#9;c-0.2,0.2-0.9,1.9-1.4,3.2c-1.4,3.4-1.9,4.6-2.3,4.9c-0.6,0.5-7,4.2-8.3,4.9c-0.3,0.2-0.7,0.1-0.9-0.2c-0.2-0.3-0.1-0.7,0.2-0.9&#10;&#9;&#9;c0,0,0,0,0,0c2.9-1.7,7.7-4.4,8.1-4.8c0.3-0.3,1.3-2.8,2-4.4c0.4-1.2,1-2.4,1.6-3.6c0.2-0.3,1.1-1.1,2-1c0.4,0.1,0.8,0.4,0.9,0.9&#10;&#9;&#9;c0.3,0.8,0.1,3.4-0.2,5.2c8.6-6.6,9.2-6.3,9.6-6.1c0.5,0.3,0.8,0.7,0.9,1.2c0.1,1.1-0.3,2.2-1.1,3c-1.2,1.5-2.6,2.8-4.2,3.9&#10;&#9;&#9;c1.2,1.4,3,3.8,2.5,5.1s-9.5,7.4-13.4,10C220.5,186.9,220.3,187,220.2,187z"/>
	<path class="st3_startup-19 targetColor" d="M145.6,170.2c0,0-13.6-4.4-49.4,2.4c-6.2,1.2-9.1,59.1-4.4,94l62.7-0.5C154.5,266.1,164.9,175.1,145.6,170.2z" style="fill: rgb(104, 225, 253);"/>
	<path class="st3_startup-19 targetColor" d="M93.8,164.2c0,0-13.5,43.4-14.4,47.2s-10.1,55-10.1,55l14.3,4.8c0,0,20.7-47.8,19.4-61.2&#10;&#9;&#9;S93.8,164.2,93.8,164.2z" style="fill: rgb(104, 225, 253);"/>
	<path class="st3_startup-19 targetColor" d="M144.4,170.2c10.9,1,33.6,27.4,35.4,26.6s35.5-23.8,35.5-23.8l10.6,11.6c0,0-32.6,37.8-39.3,41.8&#10;&#9;&#9;c-10.2,6.1-53.5-21.6-53.5-21.6S133.5,169.2,144.4,170.2z" style="fill: rgb(104, 225, 253);"/>
	<path class="st0_startup-19" d="M77,280.7c0,0-4.4-2.4-2.5-6.5"/>
	<path class="st2_startup-19" d="M77,281.3c-0.1,0-0.2,0-0.3-0.1c-1.7-0.9-4.5-3.6-2.7-7.3c0.2-0.3,0.6-0.4,0.9-0.2c0.3,0.2,0.4,0.5,0.3,0.8&#10;&#9;&#9;c-1.7,3.5,2,5.5,2.2,5.6c0.3,0.2,0.4,0.6,0.3,0.9c0,0,0,0,0,0C77.4,281.2,77.2,281.3,77,281.3z"/>
	<path class="st2_startup-19" d="M177.6,227.3h-0.1c-6.8-1.4-20.2-9.3-37.8-22.4l-0.8-0.6c-0.3-0.2-0.4-0.6-0.2-0.9c0.2-0.3,0.6-0.4,0.9-0.2&#10;&#9;&#9;c0,0,0,0,0,0l0.9,0.6c17.4,13,30.6,20.9,37.2,22.2c0.3,0.1,0.6,0.4,0.5,0.7C178.1,227.1,177.9,227.3,177.6,227.3L177.6,227.3z"/>
	<path class="st2_startup-19" d="M141,143.4c-2.5,0-4.6-2.1-4.6-4.6s2.1-4.6,4.6-4.6s4.6,2.1,4.6,4.6C145.6,141.4,143.5,143.4,141,143.4z&#10;&#9;&#9; M141,135.6c-1.8,0-3.2,1.4-3.2,3.2s1.4,3.2,3.2,3.2c1.8,0,3.2-1.4,3.2-3.2S142.8,135.6,141,135.6L141,135.6z"/>
	<path class="st0_startup-19" d="M139.1,141.9c0,0,4.6,7.5,3.5,9s-4.3,0.4-4.3,0.4"/>
	<path class="st2_startup-19" d="M140.7,152.3c-0.9,0-1.8-0.2-2.6-0.4c-0.4-0.1-0.6-0.5-0.4-0.9s0.5-0.6,0.9-0.4c0.9,0.3,3,0.7,3.5-0.1&#10;&#9;&#9;c0.4-0.7-1.3-4.5-3.5-8.2c-0.2-0.3-0.1-0.8,0.2-1c0,0,0,0,0,0c0.3-0.2,0.8-0.1,1,0.2c0,0,0,0,0,0c1.4,2.4,4.7,8.1,3.5,9.7&#10;&#9;&#9;C142.6,152,141.6,152.4,140.7,152.3z"/>
	<path class="st0_startup-19" d="M138.5,132.2c3,2.6,1.9,7.9,1.7,11.4c-0.2,4.9-0.6,9.7-1,14.5c-0.3,3.1-8.2,2.8-9.6,1.9l1.7,7.7l-17.4-2.6&#10;&#9;&#9;l1.1-10c0,0-1.1-14,2.2-20.1c2-3.6,5.9-5.8,10-5.6C127.2,129.4,135.6,129.6,138.5,132.2z"/>
	<path class="st2_startup-19" d="M131.2,168.3h-0.1l-17.4-2.6c-0.4-0.1-0.6-0.4-0.6-0.8l1.1-10c0-0.4-1.1-14.1,2.3-20.4&#10;&#9;&#9;c2.1-3.9,6.3-6.2,10.7-5.9c0.3,0,8.7,0.3,11.7,3c2.7,2.4,2.4,6.6,2.1,10c-0.1,0.6-0.1,1.3-0.1,1.9c-0.2,4.9-0.6,9.8-1,14.6&#10;&#9;&#9;c-0.1,1.1-0.9,2-1.9,2.3c-2.4,0.9-5,1-7.4,0.5l1.4,6.5c0.1,0.4-0.1,0.7-0.5,0.8C131.4,168.3,131.3,168.3,131.2,168.3L131.2,168.3z&#10;&#9;&#9; M114.6,164.5l15.7,2.3l-1.5-6.7c-0.1-0.3,0-0.6,0.3-0.7c0.2-0.2,0.6-0.2,0.8,0c0.7,0.5,5.1,0.9,7.4-0.1c0.7-0.3,1.1-0.7,1.1-1.2&#10;&#9;&#9;c0.4-4.8,0.8-9.7,1-14.5c0-0.6,0.1-1.2,0.1-1.9c0.3-3.1,0.6-6.9-1.6-8.9l0,0c-2.7-2.4-10.8-2.7-10.9-2.7c-3.9-0.2-7.5,1.8-9.3,5.2&#10;&#9;&#9;c-3.2,5.9-2.2,19.6-2.2,19.7L114.6,164.5z"/>
	<path class="st0_startup-19" d="M110.4,167.4l1.6-5.3l21.4,2.1l1.2,4.9C134.7,169,123.5,174.4,110.4,167.4z"/>
	<path class="st2_startup-19" d="M124.5,171.7c-5,0-10-1.3-14.4-3.7c-0.3-0.2-0.4-0.5-0.3-0.8l1.6-5.3c0.1-0.3,0.4-0.5,0.7-0.5l21.4,2.1&#10;&#9;&#9;c0.3,0,0.5,0.2,0.6,0.5l1.2,4.9c0.1,0.3-0.1,0.7-0.4,0.8C131.6,171,128.1,171.7,124.5,171.7z M111.3,167.1c7,3.6,15.1,4.2,22.6,1.6&#10;&#9;&#9;l-1-3.8l-20.3-2L111.3,167.1z"/>
	<path class="st0_startup-19" d="M120.9,156.3c0,8.2,8.3,24.9,1.2,31.5c-6.7,6.2-18.1,7.8-26.8,6.8c-12.6-1.4-19.2-10.1-14-22.4&#10;&#9;&#9;c2.5-6,7-10.9,10.7-16.3c3.3-4.7,6-9.8,8.2-15.1c1.8-4.5,3.2-9.8,5.7-13.9c5.5-9.3,15.3-12.9,25.5-9.9c4.4,1.3,12.9,6.6,10.8,12.3&#10;&#9;&#9;c-0.5,1.4-2.2,3.5-3.6,2.9c-0.4,2.7-2.1,4-4.3,5.8c-2.2,1.6-4.5,3.1-6.9,4.5c-1.6,1-3,2.3-4.2,3.8c-1.2,2.1-2,4.4-2.1,6.8&#10;&#9;&#9;C121,154.1,120.9,155.2,120.9,156.3z"/>
	<path class="st2_startup-19" d="M99.9,195.5c-1.6,0-3.1-0.1-4.7-0.2c-6.8-0.7-12-3.6-14.6-8c-2.5-4.2-2.5-9.5,0-15.4c1.9-4.4,4.8-8.3,7.6-12.1&#10;&#9;&#9;c1.1-1.4,2.1-2.9,3.2-4.3c3.2-4.7,6-9.7,8.1-14.9c0.6-1.5,1.2-3,1.7-4.6c1-3.3,2.4-6.4,4-9.4c5.6-9.4,15.7-13.4,26.3-10.2&#10;&#9;&#9;c3.3,1,8.8,4.1,10.8,8.1c0.9,1.6,1,3.4,0.4,5.1c-0.5,1.4-1.5,2.6-2.8,3.3c-0.3,0.1-0.6,0.2-0.9,0.2c-0.6,2.4-2.2,3.8-4.1,5.3&#10;&#9;&#9;l-0.3,0.2c-1.5,1.1-3,2.2-4.6,3.1c-0.8,0.5-1.6,0.9-2.3,1.4c-1.6,0.9-2.9,2.1-4,3.6c-1.2,2-1.9,4.2-2,6.5c-0.1,1-0.2,2.1-0.2,3.1&#10;&#9;&#9;l0,0c0,2.6,0.9,6.1,1.8,9.9c2,8.1,4.3,17.4-0.8,22.1C116.7,193.7,107.5,195.5,99.9,195.5z M124.4,116.6c-7.4,0-14,3.8-18,10.6&#10;&#9;&#9;c-1.6,2.9-2.9,6-3.9,9.1c-0.6,1.6-1.1,3.2-1.8,4.7c-2.2,5.4-4.9,10.5-8.2,15.2c-1,1.5-2.1,2.9-3.2,4.4c-2.8,3.7-5.7,7.5-7.4,11.8&#10;&#9;&#9;c-2.3,5.4-2.3,10.3,0,14.1c2.4,4,7.2,6.6,13.5,7.3c7.9,0.9,19.5-0.4,26.3-6.6c4.5-4.1,2.3-13,0.4-20.7c-0.9-3.9-1.8-7.5-1.8-10.2&#10;&#9;&#9;l0,0c0-1.1,0.1-2.2,0.2-3.3c0.1-2.5,0.9-5,2.2-7.2c1.2-1.6,2.7-3,4.4-4c0.8-0.5,1.6-1,2.4-1.5c1.5-0.9,3-1.9,4.4-3l0.3-0.2&#10;&#9;&#9;c2-1.6,3.4-2.8,3.7-5.1c0-0.4,0.4-0.7,0.8-0.6c0.1,0,0.2,0,0.2,0.1c0.2,0.1,0.4,0.1,0.6-0.1c0.9-0.6,1.6-1.4,2-2.5&#10;&#9;&#9;c0.5-1.3,0.3-2.8-0.4-4c-1.8-3.6-7-6.5-10-7.4C129,117,126.7,116.6,124.4,116.6z"/>
	<path class="st0_startup-19" d="M139.2,154.4c0,0-3.9,2.2-5.7-1.8"/>
	<path class="st2_startup-19" d="M136.9,155.7c-0.4,0-0.9-0.1-1.3-0.2c-1.2-0.4-2.2-1.4-2.7-2.6c-0.2-0.3-0.1-0.8,0.3-1c0.3-0.2,0.8-0.1,1,0.3&#10;&#9;&#9;c0,0,0,0.1,0,0.1c0.3,0.9,1,1.5,1.9,1.9c1,0.2,2,0.1,2.9-0.4c0.3-0.2,0.8-0.1,1,0.2c0,0,0,0,0,0.1c0.2,0.3,0.1,0.8-0.2,1&#10;&#9;&#9;c0,0,0,0-0.1,0C138.8,155.5,137.8,155.7,136.9,155.7z"/>
	<path class="st2_startup-19" d="M119.1,144.7c-0.4,0-0.7-0.3-0.7-0.7c0-0.1,0-0.1,0-0.2c0.8-2.6,1.3-2.6,1.7-2.7s16.4-2,24.7-3&#10;&#9;&#9;c0.4,0,0.7,0.3,0.7,0.7c0,0.3-0.2,0.6-0.5,0.7c-2.4,0.3-22.1,2.7-24.6,3c-0.3,0.5-0.5,1.1-0.6,1.7&#10;&#9;&#9;C119.7,144.5,119.4,144.7,119.1,144.7z M120.2,142.6L120.2,142.6z"/>
	<path class="st0_startup-19" d="M129.7,144.6c-0.1-1.2-0.5-2.4-1.2-3.4c-0.4-0.8-1-1.6-1.7-2.2c-0.7-0.7-1.6-1-2.6-0.9c-0.8,0.2-1.6,0.7-2,1.4&#10;&#9;&#9;c-0.4,0.7-0.7,1.6-0.7,2.4c-0.3,3.7,1.4,7.3,4.4,9.4l-0.3-0.3"/>
	<path class="st2_startup-19" d="M126,152c-0.1,0-0.3,0-0.4-0.1c-3.3-2.3-5.1-6.1-4.8-10.1c0.1-0.9,0.3-1.9,0.8-2.7c0.5-0.9,1.4-1.6,2.4-1.8&#10;&#9;&#9;c1.2-0.1,2.3,0.2,3.2,1.1c0.7,0.7,1.3,1.5,1.8,2.4c0.8,1.1,1.2,2.4,1.3,3.8c0,0.4-0.3,0.7-0.7,0.7c-0.4,0-0.7-0.3-0.7-0.7&#10;&#9;&#9;c-0.1-1.1-0.5-2.1-1.1-3c-0.4-0.8-0.9-1.5-1.6-2.1c-0.5-0.5-1.3-0.8-2-0.7c-0.6,0.1-1.2,0.5-1.5,1.1c-0.4,0.6-0.6,1.4-0.6,2.1&#10;&#9;&#9;c-0.2,3.2,1.1,6.3,3.6,8.4c0.2,0,0.3,0.1,0.4,0.2l0.3,0.3c0.2,0.3,0.2,0.7-0.1,1C126.3,151.9,126.2,152,126,152z"/>
	
		<ellipse transform="matrix(0.9999 -1.570732e-02 1.570732e-02 0.9999 -2.1514 2.1821)" class="st2_startup-19" cx="137.8" cy="138" rx="0.7" ry="1.7"/>
	<path class="st2_startup-19" d="M90.8,258.3c-0.3,0-0.6-0.3-0.6-0.6c-1.2-16.4,1.2-60.2,1.2-60.6c0-0.3,0.3-0.6,0.7-0.6c0,0,0,0,0,0&#10;&#9;&#9;c0.4,0,0.6,0.3,0.6,0.7c0,0,0,0,0,0c0,0.4-2.5,44.2-1.2,60.5C91.5,258,91.2,258.3,90.8,258.3L90.8,258.3z"/>
	<path class="st2_startup-19" d="M96.7,259.7c-0.4,0-0.6-0.3-0.6-0.6c0-0.4,0.3-0.6,0.6-0.6l56-2.7c0.4,0,0.7,0.3,0.7,0.6c0,0,0,0,0,0&#10;&#9;&#9;c0,0.4-0.3,0.6-0.6,0.7L96.7,259.7L96.7,259.7z"/>
</g>
</svg>