<svg id="_0567_video_call" xmlns="http://www.w3.org/2000/svg" xmlns:xlink="http://www.w3.org/1999/xlink" viewBox="0 0 500 500" data-imageid="video-call-2-48" imageName="Video Call 2" class="illustrations_image" style="width: 151px;"><defs><style>.cls-1_video-call-2-48{fill:url(#linear-gradient);}.cls-1_video-call-2-48,.cls-2_video-call-2-48,.cls-3_video-call-2-48,.cls-4_video-call-2-48,.cls-5_video-call-2-48,.cls-6_video-call-2-48,.cls-7_video-call-2-48,.cls-8_video-call-2-48,.cls-9_video-call-2-48,.cls-10_video-call-2-48,.cls-11_video-call-2-48,.cls-12_video-call-2-48,.cls-13_video-call-2-48,.cls-14_video-call-2-48,.cls-15_video-call-2-48,.cls-16_video-call-2-48,.cls-17_video-call-2-48,.cls-18_video-call-2-48,.cls-19_video-call-2-48,.cls-20_video-call-2-48,.cls-21_video-call-2-48{stroke-width:0px;}.cls-2_video-call-2-48{opacity:.18;}.cls-2_video-call-2-48,.cls-7_video-call-2-48{isolation:isolate;}.cls-2_video-call-2-48,.cls-21_video-call-2-48{fill:#68e1fd;}.cls-3_video-call-2-48{fill:url(#linear-gradient-11-video-call-2-48);}.cls-4_video-call-2-48{fill:url(#linear-gradient-13-video-call-2-48);}.cls-5_video-call-2-48{fill:url(#linear-gradient-10-video-call-2-48);}.cls-6_video-call-2-48{fill:url(#linear-gradient-14-video-call-2-48);}.cls-7_video-call-2-48{fill:url(#linear-gradient-12-video-call-2-48);opacity:.5;}.cls-8_video-call-2-48{fill:url(#linear-gradient-4-video-call-2-48);}.cls-9_video-call-2-48{fill:url(#linear-gradient-2-video-call-2-48);}.cls-10_video-call-2-48{fill:url(#linear-gradient-3-video-call-2-48);}.cls-11_video-call-2-48{fill:url(#linear-gradient-8-video-call-2-48);}.cls-12_video-call-2-48{fill:url(#linear-gradient-9-video-call-2-48);}.cls-13_video-call-2-48{fill:url(#linear-gradient-7-video-call-2-48);}.cls-14_video-call-2-48{fill:url(#linear-gradient-5-video-call-2-48);}.cls-15_video-call-2-48{fill:url(#linear-gradient-6-video-call-2-48);}.cls-16_video-call-2-48{fill:#231f20;}.cls-17_video-call-2-48{fill:#c14834;}.cls-18_video-call-2-48{fill:#fff;}.cls-19_video-call-2-48{fill:#ffaa71;}.cls-20_video-call-2-48{fill:#ffb4a3;}</style><linearGradient id="linear-gradient-video-call-2-48" x1="105.56" y1="198.88" x2="250" y2="363.74" gradientUnits="userSpaceOnUse"><stop offset="0" stop-color="#231f20"/><stop offset=".08" stop-color="#231f20" stop-opacity=".69"/><stop offset=".21" stop-color="#231f20" stop-opacity=".32"/><stop offset="1" stop-color="#231f20" stop-opacity="0"/></linearGradient><linearGradient id="linear-gradient-2-video-call-2-48" x1="352.82" y1="272.75" x2="397.69" y2="429.54" xlink:href="#linear-gradient-video-call-2-48"/><linearGradient id="linear-gradient-3-video-call-2-48" x1="316.95" y1="172.76" x2="466.68" y2="399.63" xlink:href="#linear-gradient-video-call-2-48"/><linearGradient id="linear-gradient-4-video-call-2-48" x1="302.97" y1="245.04" x2="382.38" y2="342.6" xlink:href="#linear-gradient-video-call-2-48"/><linearGradient id="linear-gradient-5-video-call-2-48" x1="326.72" y1="43.62" x2="358" y2="456.72" gradientUnits="userSpaceOnUse"><stop offset="0" stop-color="#231f20"/><stop offset=".13" stop-color="#231f20" stop-opacity=".69"/><stop offset=".25" stop-color="#231f20" stop-opacity=".32"/><stop offset="1" stop-color="#231f20" stop-opacity="0"/></linearGradient><linearGradient id="linear-gradient-6-video-call-2-48" x1="306.33" y1="191.38" x2="369.86" y2="332.79" gradientUnits="userSpaceOnUse"><stop offset="0" stop-color="#fff" stop-opacity="0"/><stop offset="1" stop-color="#fff"/></linearGradient><linearGradient id="linear-gradient-7-video-call-2-48" x1="50.73" y1="4854.13" x2="54.47" y2="4874.45" gradientTransform="translate(244.13 5051.57) scale(1 -1)" gradientUnits="userSpaceOnUse"><stop offset="0" stop-color="#010101" stop-opacity="0"/><stop offset=".95" stop-color="#010101"/></linearGradient><linearGradient id="linear-gradient-8-video-call-2-48" x1="56.43" y1="4866.48" x2="52.78" y2="4866.9" xlink:href="#linear-gradient-7-video-call-2-48"/><linearGradient id="linear-gradient-9-video-call-2-48" x1="119.73" y1="4808.43" x2="132.94" y2="4826.61" xlink:href="#linear-gradient-7-video-call-2-48"/><linearGradient id="linear-gradient-10-video-call-2-48" x1="119.73" y1="4856.22" x2="132.94" y2="4874.41" xlink:href="#linear-gradient-7-video-call-2-48"/><linearGradient id="linear-gradient-11-video-call-2-48" x1="46.32" y1="4811.89" x2="46.01" y2="4827.41" xlink:href="#linear-gradient-7-video-call-2-48"/><linearGradient id="linear-gradient-12-video-call-2-48" x1="40.3" y1="4821.22" x2="41.95" y2="4822.14" xlink:href="#linear-gradient-7-video-call-2-48"/><linearGradient id="linear-gradient-13-video-call-2-48" x1="15.07" y1="464.33" x2="246.14" y2="233.26" gradientUnits="userSpaceOnUse"><stop offset="0" stop-color="#231f20"/><stop offset=".08" stop-color="#231f20" stop-opacity=".69"/><stop offset=".21" stop-color="#231f20" stop-opacity=".32"/><stop offset="1" stop-color="#231f20" stop-opacity="0"/></linearGradient><linearGradient id="linear-gradient-14-video-call-2-48" x1="36.79" y1="339.38" x2="137.62" y2="339.38" gradientUnits="userSpaceOnUse"><stop offset="0" stop-color="#000" stop-opacity="0"/><stop offset=".99" stop-color="#000"/></linearGradient></defs><g id="background_video-call-2-48"><path class="cls-2_video-call-2-48 targetColor" d="M484.51,333.28c-2.4,25.37-16.24,49.37-36.77,64.38-1.88,1.38-3.81,2.69-5.8,3.91-19.86,12.18-43.09,15.98-66.65,15.48-13.09-.28-26.29-1.88-39.05-4.11-2.54-.44-5.06-.9-7.6-1.4-2.54-.48-5.09-.98-7.63-1.49-15.27-3.04-30.53-6.42-45.83-8.78-10.09-1.56-20.2-2.66-30.34-2.93-.09,0-.19-.01-.28,0-5.25-.15-10.52-.05-15.78.32-8.77.62-17.44,2-26.08,3.65-3.98.74-7.95,1.56-11.91,2.36-3.79.78-7.57,1.56-11.37,2.3-7.21,1.41-14.14,2.62-20.86,3.59-.01,0-.04.01-.05.01-8.73,1.25-17.07,2.08-25.19,2.31-4.86.16-9.64.09-14.36-.23-9.27-.6-18.33-2.15-27.4-4.89-.03,0-.04-.01-.05-.01-15.3-1.72-45.36-16.53-53.88-30.22-9.05-14.54-13.62-31.36-16.81-48.18-.6-3.22-1.17-6.45-1.71-9.66-.24-1.48-.48-2.95-.71-4.42-3.37-21.03-4.94-37.2,1.89-58.03,12.17-37.11,40.76-69.05,77.3-83.38,20.96-8.23,44.37-11.27,62.74-24.31,30.58-21.7,38.64-64.69,66.6-89.7,20.69-18.51,49.51-24.68,77.15-27.5,23.14-2.38,46.71-2.87,69.52,1.76,26.62,5.4,57.1,19.07,70.95,43.54,14.84,26.21,18.8,57.56,16.32,87.21-1.68,20.04-6.37,41.15-1.88,61.13,3.67,16.26,12.77,30.89,17.2,47.26,5.3,19.61,10.25,39.8,8.33,60.02Z" style="fill: rgb(104, 225, 253);"/></g><g id="desk_video-call-2-48"><path class="cls-21_video-call-2-48 targetColor" d="M410.49,319.7v9.66H20.81c-.6-3.22-1.17-6.45-1.71-9.66h391.39Z" style="fill: rgb(104, 225, 253);"/><path class="cls-1_video-call-2-48" d="M410.49,319.7v9.66H20.81c-.6-3.22-1.17-6.45-1.71-9.66h391.39Z"/><path class="cls-21_video-call-2-48 targetColor" d="M440.12,329.36v68.3c-1.88,1.38-3.81,2.69-5.8,3.91-17.71,10.86-38.11,15.05-59.02,15.48-13.09-.28-26.29-1.88-39.05-4.11-2.54-.44-5.06-.9-7.6-1.4-2.54-.48-5.09-.98-7.63-1.49v-80.7h119.11Z" style="fill: rgb(104, 225, 253);"/><path class="cls-9_video-call-2-48" d="M440.12,329.36v68.3c-1.88,1.38-3.81,2.69-5.8,3.91-17.71,10.86-38.11,15.05-59.02,15.48-13.09-.28-26.29-1.88-39.05-4.11-2.54-.44-5.06-.9-7.6-1.4-2.54-.48-5.09-.98-7.63-1.49v-80.7h119.11Z"/><rect class="cls-21_video-call-2-48 targetColor" x="355.11" y="319.7" width="124.02" height="9.66" style="fill: rgb(104, 225, 253);"/><rect class="cls-10_video-call-2-48" x="355.11" y="319.7" width="124.02" height="9.66"/><path class="cls-21_video-call-2-48 targetColor" d="M447.74,329.36v68.3c-1.88,1.38-3.81,2.69-5.8,3.91-30.9,18.95-70.01,17.62-105.7,11.37-2.54-.44-5.06-.9-7.6-1.4v-82.19h119.11Z" style="fill: rgb(104, 225, 253);"/></g><g id="monitor_video-call-2-48"><polygon class="cls-21_video-call-2-48 targetColor" points="383.84 319.7 322.84 319.7 311.75 272.47 372.75 272.47 383.84 319.7" style="fill: rgb(104, 225, 253);"/><polygon class="cls-21_video-call-2-48 targetColor" points="380.57 319.7 319.56 319.7 308.47 272.47 369.47 272.47 380.57 319.7" style="fill: rgb(104, 225, 253);"/><polygon class="cls-8_video-call-2-48" points="380.57 319.7 319.56 319.7 308.47 272.47 369.47 272.47 380.57 319.7"/><rect class="cls-21_video-call-2-48 targetColor" x="236.75" y="150.08" width="215.53" height="137.26" rx="18.98" ry="18.98" style="fill: rgb(104, 225, 253);"/><rect class="cls-21_video-call-2-48 targetColor" x="232.22" y="150.08" width="215.53" height="137.26" rx="18.98" ry="18.98" style="fill: rgb(104, 225, 253);"/><rect class="cls-14_video-call-2-48" x="232.22" y="150.08" width="215.53" height="137.26" rx="18.98" ry="18.98"/><path class="cls-15_video-call-2-48" d="M447.74,260.12v8.25c0,10.47-8.5,18.98-18.98,18.98h-177.58c-10.47,0-18.98-8.5-18.98-18.98v-8.25h215.53Z"/></g><g id="_character_5_video-call-2-48"><rect class="cls-18_video-call-2-48" x="261.47" y="163.89" width="66.48" height="43.29"/><path class="cls-21_video-call-2-48 targetColor" d="M275.65,203.65c2.65-4.38,7.54-6.9,12.65-6.79,1.76.04,3.54.13,5.28.13,5.05-.02,12.65-1.76,17,.83,1.8,1.06,3.3,5.87,4.2,7.77.18.38.32.86.06,1.19s-.65.31-1.01.3c-8.95-.1-17.88.02-26.83-.07-2.02-.02-12.57-.05-12.57-.05.03-.98.5-2.14,1.21-3.32Z" style="fill: rgb(104, 225, 253);"/><path class="cls-20_video-call-2-48" d="M293.25,199.1c.41.31.88.55,1.37.7.99.41,2.07.55,3.13.41,1.06-.19,2.05-.91,2.33-1.93.11-.54.12-1.09.02-1.63l-.21-1.94c-.1-.95-.22-1.94-.7-2.76-.89-1.38-2.63-1.93-4.15-1.32-.97.47-1.73,1.28-2.15,2.27-1.01,2.15-1.79,4.45.35,6.2Z"/><path class="cls-13_video-call-2-48" d="M299.18,191.95s-2.05,5.88-4.99,5.88-2.18-2.85-2.18-2.85l7.18-3.03Z"/><path class="cls-20_video-call-2-48" d="M287.94,189.59c.25,1.02.74,1.96,1.08,2.96.12.46.3.91.54,1.33.43.59,1.03,1.03,1.73,1.25,1.49.54,3.13.48,4.58-.14,1.98-.86,3.38-2.73,4.13-4.76.74-2.03,2.03-4.05,2.09-6.21.02-.93-1.11-2.05-1.43-2.91-.35-.94-1.06-1.71-1.78-2.42-.61-.66-1.33-1.22-2.11-1.65-1.94-.96-4.34-.41-6.17.73-.62.36-1.16.84-1.6,1.41-1.06,1.45-.89,3.2-.91,4.88-.01,1.88-.6,3.64-.13,5.55Z"/><path class="cls-16_video-call-2-48" d="M285.47,179.74c-.57-1.03-.76-2.21-.95-3.37-.07-.28-.06-.57.04-.84.19-.38.68-.5.98-.82.63-.66.13-1.74.17-2.65.04-1.06.89-1.96,1.86-2.38s2.06-.48,3.12-.52c1.41-.06,2.98-.05,3.96.94.54.54.82,1.31,1.41,1.79,1.23,1.01,3.08.35,4.63.7,1.35.34,2.38,1.44,2.61,2.82.22,1.34-.32,2.86.46,3.97.25.35.61.63.76,1.03.12.46.07.94-.12,1.36-.59,1.75-1.39,3.42-2.4,4.97-.17.32-.43.58-.73.77-.32.16-.87,2.06-1.06,1.76-.28-.38,0-2.89.3-3.26s.68-.7.85-1.13c.24-.66-.1-1.4-.76-1.64-.55-.2-1.18,0-1.5.49.35-2.15-.81-4.69-2.93-5.14-1.26-.26-2.54.23-3.71.77-2.45,1.13-5.09,3.76-6.99.36Z"/><path class="cls-11_video-call-2-48" d="M299.93,184.13c.04-.1.11-.17.21-.21.11,0,.23.03.31.1.18.09.31.23.38.42.02.14,0,.28-.04.42-.07.28-.17.55-.32.8-.15.26-.41.43-.7.48-.13,0-.33-.31-.33-.43s.12-.19.18-.31c.2-.39.09-.86.3-1.26Z"/></g><g id="_character_4_video-call-2-48"><rect class="cls-18_video-call-2-48" x="334.06" y="211.84" width="66.48" height="43.29"/><path class="cls-16_video-call-2-48" d="M360.4,216.18c2.41-.88,5.07-.75,7.63-.4,1.43.19,2.89.46,4.14,1.2,2.34,1.39,3.5,4.14,4.05,6.81s.67,5.44,1.65,7.97c1.14,2.93,3.4,5.4,4.15,8.43,1.22,4.94-1.79,9.93-6.72,11.15-.75.18-1.51.28-2.28.27-1.96,0-3.87-.65-5.82-.64-4.05,0-7.91,2.77-11.88,1.95-3.25-.67-5.57-3.61-6.9-6.64-.82-1.89-1.38-4.01-.74-5.99.88-2.68,3.71-4.25,4.97-6.77,1.61-3.16.4-6.91,1.77-10.11,1.24-2.95,2.73-6.06,5.98-7.23Z"/><path class="cls-21_video-call-2-48 targetColor" d="M374.35,242.07c2.17.43,4.62.23,6.39,1.51,1.07.83,1.79,2.02,2.04,3.35.23,1.3.29,2.62.19,3.94l-.14,3.89c.01.14-.03.29-.12.4-.13.09-.29.14-.45.12l-33.61.12c-.6-2.14-.29-4.43.87-6.33.97-1.61,1.87-3.21,3.39-4.38,2.04-1.55,6.8-1.68,9.04-2.95.58-.33.06-.8.71-.97s.37-.95,1.01-.96c1.83,0,4.12-.24,5.9.25,1.68.48,2.98,1.65,4.77,2.01Z" style="fill: rgb(104, 225, 253);"/><path class="cls-20_video-call-2-48" d="M361.23,243.2c-.18.54-.29,1.09-.33,1.65-.01,1.3.67,2.5,1.78,3.16,1.12.64,2.48.71,3.66.18,1.28-.63,2.26-1.74,2.73-3.08.46-1.33.69-2.74.68-4.15.05-1.88-.06-3.76-.33-5.62.09-.63-.35-1.22-.99-1.31-.08-.01-.16-.01-.25,0-2.34-.19-4.42.78-5.38,3.04-.23.68-.38,1.39-.46,2.1-.28,1.35-.73,2.68-1.11,4.02Z"/><path class="cls-12_video-call-2-48" d="M362.05,240.35s-.2,1.73.58,2.37,3.86,2.14,5.35.04c.93-1.37,1.53-2.93,1.76-4.57l-7.69,2.17Z"/><path class="cls-20_video-call-2-48" d="M357.79,234.69c.4,1.26,2.77,5.7,6.04,6.51,7.04,1.75,9.18-10.65,8.83-13.25-.25-1.89-1.81-4.42-3.24-5.67-1.7-1.5-4.32-1.61-6.4-.73-5.54,2.36-7,7.74-5.24,13.13Z"/><path class="cls-16_video-call-2-48" d="M355.51,227.78c.13.54.55.96,1.1,1.08.58.08,1.12-.29,1.68-.47.67-.2,1.42-.12,2.08-.37s1.2-1.08.8-1.65c-.19.86.94,1.43,1.82,1.35s1.78-.47,2.61-.16l.33-1.71c-.09.73.34,1.43,1.04,1.69.68.24,1.42.25,2.11.03.31-.08.69-.32.57-.61.71.86,2.08.5,3.11.06.16-.05.31-.16.4-.3.07-.18.07-.37,0-.55-.44-1.66-.9-3.35-1.79-4.82-.89-1.47-2.29-2.73-3.99-3.03-.98-.13-1.98-.07-2.94.16-2.56.4-4.89,1.71-6.57,3.69-1.24,1.33-2.88,3.72-2.36,5.6Z"/></g><g id="_character_3_video-call-2-48"><rect class="cls-18_video-call-2-48" x="334.06" y="164.2" width="66.48" height="43.29"/><path class="cls-17_video-call-2-48" d="M360.4,168.38c2.41-.88,5.07-.75,7.63-.4,1.43.19,2.89.46,4.14,1.2,4.1,2.43,3.14,5.9,3.51,9.7.12,1.25.78,2.52,1.93,3.01.78.33,1.72.3,2.38.83.74.6.84,1.71.62,2.64s-.69,1.79-.87,2.73c-.07.37-.09.78.12,1.08.28.42.86.49,1.33.68,1.14.46,1.75,1.74,1.92,2.96s0,2.46.11,3.69c.07.78.25,1.55.2,2.32-.16,2.39-2.54,4.13-4.91,4.43s-4.73-.49-7-1.24-4.65-1.51-7.01-1.13c-2.55.41-5.25,2.08-7.51.82-1.32-.73-1.98-2.31-2.02-3.82s.44-2.98.93-4.4c.16-.46.31-.97.11-1.41-.17-.37-.55-.59-.87-.85-3.3-2.57-2.09-12.32-.7-15.63,1.24-2.95,2.73-6.06,5.98-7.23Z"/><path class="cls-21_video-call-2-48 targetColor" d="M374.35,194.27c2.17.43,4.62.23,6.39,1.51,1.07.83,1.79,2.02,2.04,3.35.23,1.3.29,2.62.19,3.94l-.14,3.89c.01.14-.03.29-.12.4-.13.09-.29.14-.45.12l-33.61.12c-.6-2.14-.29-4.43.87-6.33.97-1.61,1.87-3.21,3.39-4.38,2.04-1.55,6.8-1.68,9.04-2.95.58-.33.06-.8.71-.97s.37-.95,1.01-.96c1.83,0,4.12-.24,5.9.25,1.68.48,2.98,1.65,4.77,2.01Z" style="fill: rgb(104, 225, 253);"/><path class="cls-20_video-call-2-48" d="M361.23,195.41c-.18.54-.29,1.09-.33,1.65-.01,1.3.67,2.5,1.78,3.16,1.12.64,2.48.71,3.66.18,1.28-.63,2.26-1.74,2.73-3.08.46-1.33.69-2.74.68-4.15.05-1.88-.06-3.76-.33-5.62.09-.63-.35-1.22-.99-1.31-.08-.01-.16-.01-.25,0-2.34-.19-4.42.78-5.38,3.04-.23.68-.38,1.39-.46,2.1-.28,1.35-.73,2.68-1.11,4.02Z"/><path class="cls-5_video-call-2-48" d="M362.05,192.56s-.2,1.73.58,2.37,3.86,2.14,5.35.04c.93-1.37,1.53-2.93,1.76-4.57l-7.69,2.17Z"/><path class="cls-20_video-call-2-48" d="M357.79,186.89c.4,1.26,2.77,5.7,6.04,6.51,7.04,1.75,9.18-10.65,8.83-13.25-.25-1.89-1.81-4.42-3.24-5.67-1.7-1.5-4.32-1.61-6.4-.73-5.54,2.36-7,7.74-5.24,13.13Z"/><path class="cls-17_video-call-2-48" d="M362.68,178.35c1.47.43,2.97.75,4.49.94.1.89.22,1.77.38,2.65.06.36.14.73.33,1.05.3.48.85.76,1.4.86s1.13.05,1.69-.01c.25-.03.53-.04.73.12.11.09.17.23.23.37.33.78.66,1.56,1,2.34.1.08.26-.02.3-.14s0-.26-.02-.38c-.15-.92.47-1.77.84-2.62.96-2.19.32-4.73-.49-6.97-.38-1.03-.8-2.07-1.47-2.94-1.48-1.91-3.97-2.76-6.38-3.03-1.2-.13-2.45-.14-3.56.31-1.59.64-2.87,2.39-2.93,4.12-.07,1.83,1.97,2.89,3.45,3.33Z"/></g><g id="_character_2_video-call-2-48"><rect class="cls-18_video-call-2-48" x="261.47" y="211.84" width="66.48" height="43.29"/><path class="cls-21_video-call-2-48 targetColor" d="M280.79,239.15c2.63-1.23,5.84-1.4,8.91-1.52,3.31-.13,6.87-.17,9.62,1.26,1.38.72,2.42,1.75,3.44,2.77.37.33.68.71.93,1.14.27.53.27,1.13.27,1.7l-.02,7.86c0,.51,0,1.05-.27,1.52-.73,1.33,1.81,1.3-.06,1.3-8.35,0-30.32.04-30.32.04.48-.04,1-4.48.98-4.94-.04-1.57-.49-2.89.27-4.36,1.31-2.58,3.09-5.31,6.25-6.78Z" style="fill: rgb(104, 225, 253);"/><path class="cls-17_video-call-2-48" d="M288.38,241.95c.93.71,2.16,1.21,3.33,1.01,1.59-.28,2.51-1.74,2.71-3.16s-.13-2.87-.05-4.3c.05-.9.26-1.8.01-2.68-.37-1.33-1.81-2.38-3.34-2.56-1.5-.17-2.99.37-4.02,1.47-1.41,1.57-.98,3.45-1.06,5.31-.07,1.81.81,3.68,2.41,4.91Z"/><path class="cls-3_video-call-2-48" d="M286.34,235.31s1.59,4.59,4.63,4.59,3.49-1.54,3.49-1.54l-.13-2.47-7.98-.57Z"/><path class="cls-17_video-call-2-48" d="M297.3,229.82c-.08,1.35-.22,2.71-.66,3.99s-1.2,2.48-2.32,3.24c-1.57,1.06-3.68,1.14-5.43.4s-3.12-2.2-3.98-3.88c-.89-1.68-1.44-3.51-1.62-5.4-.12-1.41.11-2.96.76-4.21.7-1.34,2.05-2.25,3.49-2.7s2.97-.49,4.48-.45c1.22.03,2.49.13,3.58.69,1.26.64,2.01,1.8,1.8,3.19-.25,1.67,0,3.46-.1,5.14Z"/><path class="cls-16_video-call-2-48" d="M285.26,229.15c-.39-.2-.6-.73-1.04-.77-.28,0-.53.16-.63.41-.1.25-.12.53-.06.79.11.63.43,1.2.9,1.63.2.17.43.35.52.59.05.19.05.38.02.57l-.17,1.35c-.68-.22-1.18-.84-1.43-1.51-.11-.29-.22-.83-.6-.92s-.63.4-1.09.05c-.31-.24-.41-.73-.2-1.07-.43.47-1.32.06-1.42-.57s.36-1.23.92-1.53c-.67-.23-1.28-.78-1.34-1.48s.61-1.44,1.29-1.26c-.51-.55-.47-1.48-.01-2.08s1.24-.89,1.99-.91c.01-.68.03-1.36.04-2.04,0-.46.03-.94.29-1.31s.88-.52,1.17-.17c.1-.95.33-2.08,1.23-2.41.66-.24,1.38.07,2.01.39.04-.84.72-1.57,1.53-1.79s1.7.02,2.38.51c.09.07.19.14.3.16.14.03.29-.02.42-.08,1.01-.39,2.2-.74,3.1-.14.91.6,1.05,1.85,1.1,2.93.04-.44.67-.47,1.11-.37.48.12.99.26,1.31.63.6.68.31,1.74-.12,2.54.85-.01,1.65.7,1.73,1.55.14,1.52-1.36,1.55-2.15,2.36-.54.56-.78,1.38-1.39,1.85-.7.52-1.7.45-2.5.1s-1.48-.93-2.23-1.37c-.37-.22-.8-.42-1.22-.33-.61.13-.95.78-1.49,1.09-.48.28-1.08.26-1.62.15-.65-.13-1.41-.26-1.85.35-.4.56-.61,1.47-.77,2.13Z"/><path class="cls-7_video-call-2-48" d="M284.6,229.81c-.05-.11-.09-.22-.15-.32-.06-.11-.17-.18-.29-.17-.12.03-.21.13-.23.25-.02.12,0,.24.03.35.07.23.15.46.26.68.07.14.16.27.28.38.14.1.3.16.47.19.06.02.13.02.18-.02.03-.03.05-.07.06-.11.06-.21.13-.63-.03-.81-.08-.08-.19-.07-.29-.1-.14-.06-.24-.16-.3-.3Z"/></g><g id="_character_1_video-call-2-48"><path class="cls-16_video-call-2-48" d="M247.63,383.85c.15,5.09-.91,9.91-2.79,14.49-.09,0-.19-.01-.28,0-5.25-.15-10.52-.05-15.78.32-8.77.62-17.44,2-26.08,3.65-3.98.74-7.95,1.56-11.91,2.36-3.79.78-7.57,1.56-11.37,2.3-7.21,1.41-14.14,2.62-20.86,3.59-8.58-3.65-16.37-9.2-22.72-16.34-.68-.77-1.34-1.54-1.99-2.34-.82-1.03-1.6-2.11-2.32-3.24-2.12-3.25-3.75-6.85-4.15-10.56-.17-1.53-.13-3.08.16-4.62,1.01-5.28,4.86-9.48,9.21-12.72.47-.35.94-.7,1.42-1.02,10.7-7.33,21.68-9.79,32.73-9.53.97.03,1.95.08,2.91.15,6.12.39,12.27,1.56,18.43,3.13,9.56,2.44,19.11,5.87,28.55,8.89,6.98,1.87,13.67,4.71,19.86,8.47,1.77,1.14,3.32,2.59,4.55,4.31,1.62,2.61,2.47,5.63,2.43,8.7Z"/><path class="cls-16_video-call-2-48" d="M244.56,398.35c-5.25-.15-10.52-.05-15.78.32-8.77.62-17.44,2-26.08,3.65-3.98.74-7.95,1.56-11.91,2.36-3.79.78-7.57,1.56-11.37,2.3-20.34,3.95-39.13,8.5-60.06,4.61-1.23-.23-2.49-.49-3.5-1.23-1.34-.97-2.03-2.6-2.54-4.18-2.93-9.07-2.13-19.29,2.19-27.79,5.11-10.06,13.2-14.05,22.67-18.85,10.91-5.53,20.12-9.7,32.73-9.35.97.03,1.95.08,2.91.15,6.14.43,12.31,1.62,18.48,3.22,9.45,2.44,18.9,5.83,28.26,8.82,7,1.87,13.68,4.71,19.86,8.47,1.77,1.13,3.33,2.59,4.57,4.3,1.58,2.57,2.42,5.55,2.4,8.57v.04c.16,5.12-.91,9.96-2.82,14.57Z"/><path class="cls-16_video-call-2-48" d="M275.18,401.27c-10.09-1.56-20.2-2.66-30.34-2.93-.09,0-.19-.01-.28,0-5.25-.15-10.52-.05-15.78.32-8.77.62-17.44,2-26.08,3.65-3.98.74-7.95,1.56-11.91,2.36-11.35-2.03-22.8-3.67-34.06-6.15-5.6-.87-10.93-2.99-15.62-6.19-1.18-.91-2.24-2-3.16-3.2-.42-.54-.79-1.1-1.13-1.68-1.41-2.39-2.19-5.1-1.99-7.8.04-.73.17-1.44.38-2.15.6-1.57,1.41-3.05,2.4-4.39,1.53-2.08,3.49-3.84,5.77-5.14,5.68-4.1,12.38-6.57,19.37-7.14,4.69-.26,9.36.68,14.02.43,4.16-.23,7.04-2.54,10.77-3.09,2.65-.4,5.49-.04,8.39.74,6.35,1.75,12.91,5.56,17.89,8.06l33.55,16.76.26.12,6.71,3.36c6.34,2.9,12.34,6.46,17.9,10.64,1.44.77,2.43,2,2.93,3.42Z"/><path class="cls-19_video-call-2-48" d="M213.77,183.48c-4.65-4.13-14.37-5.12-18.87-.56-3.27,3.36-3.49,8.58-4.3,13.25-1.19,6.7-4.01,13.01-8.2,18.37-2.26,2.88-4.97,5.59-5.94,9.1-.4,1.14-.4,2.37,0,3.51.67,1.2,1.68,2.17,2.9,2.8,2.77,2.02,5.9,3.48,9.23,4.3,3.41.79,6.96-.45,9.14-3.18.77-1.16,1.33-2.71,2.67-3.14,1.74-.56,3.31,1.14,5.01,1.81,2.86,1.1,6.13-.97,7.55-3.68,1.21-2.83,1.93-5.84,2.15-8.91.21-3.09,1.62-5.98,3.94-8.05.93-.69,2.11-1.2,2.56-2.26.82-1.96-1.29-3.74-2.62-5.42-4.15-5.34-.02-13.56-5.23-17.94Z"/><path class="cls-16_video-call-2-48" d="M212.25,164.5c-5.85-6.67-14.77-10.51-22.4-5.82-2.87,1.77-5.15,4.44-8.18,5.93-1.82.9-3.84,1.33-5.82,1.8-5.17,1.23-10.55,2.97-14.05,6.98-3.5,4-4.16,10.91-.06,14.3-1.76,2.21-1.54,5.73.48,7.71,1.15,1.12,2.7,1.72,4.03,2.61,4.06,2.73,4,5.71,3.72,9.79.07.68.35,1.33.8,1.85l3.68,5.31c1.27,1.81,2.97,3.74,5.12,3.74,3.21-.15,4.84-4.63,8.05-4.91,1.4.11,2.78.43,4.09.95,1.36.32,3.16-.06,3.51-1.42-3.59-1.94-5.05-6.35-3.31-10.05.77-1.51,2.71-2.78,4.07-1.79.82.6,1.01,1.72,1.48,2.62s1.83,1.57,2.43.75c1.79-4.2-.11-9.23,1.2-13.53,1.22-3.79,4.63-6.45,8.61-6.71,1.68-.13,3.38.22,5.06,0,1.73-.1,3.21-1.29,3.66-2.97.81-5.74-1.82-12.22-6.15-17.15Z"/><path class="cls-21_video-call-2-48 targetColor" d="M167.53,226.67c-.67.91-.89,2.07-.62,3.16.54.96,1.57,1.52,2.67,1.46,7.62.73,15.56,1.79,22.68,5.51,1.55.73,3.57,1.53,4.65,0,.62-1.12.62-2.49,0-3.61-.58-1.01-1.38-1.88-2.35-2.54-3.08-2.27-6.31-4.34-9.66-6.2-6.2-3.66-12.59-5.59-17.36,2.22Z" style="fill: rgb(104, 225, 253);"/><path class="cls-21_video-call-2-48 targetColor" d="M191.46,352.08c3.64,7.23,11.23,11.64,3.64,18.93-13.43,12.93-37.16,18.35-55.15,18.18-12.05-.11-24.51-2.88-33.97-10.35-2.9-2.1-5.17-4.95-6.56-8.24-.68-2.19-1.04-4.46-1.08-6.76-2.37-42.41,12.67-84.17,33.89-120.96,4.04-7.04,9.34-14.63,17.38-15.81,2.88-.28,5.78-.1,8.61.54,18.84,3.24,37.47,7.6,55.79,13.04,2.43.55,4.73,1.59,6.76,3.06,1.43,1.3,2.66,2.82,3.64,4.5l28.98,44.41c4.2,6.41,8.54,13.43,8.05,21.06-.02,2.25-.78,4.42-2.15,6.2-2.2,2.07-5.05,3.31-8.07,3.53-10.56,1.7-21.37.97-31.61-2.15,5.72-4.39,3.92-13.51.15-19.67-2.55-4.15-5.72-7.89-9.38-11.1-2.44,12-6.41,23.63-11.81,34.62-4.07,8.26-11.68,17.88-7.1,26.98Z" style="fill: rgb(104, 225, 253);"/><path class="cls-4_video-call-2-48" d="M108.88,295.31c.74-2.78,2.89-11.56,5.52-16.39,10.49,7.47,18.18,22.08,22.06,34.36,3.88,12.28,7.04,25.21,14.92,35.39,2.85-.99,5.7-1.97,8.55-2.96.53,1.8,1.06,3.6,1.59,5.4,1.25,4.25-2.33,8.62-1.96,12.91s4.68,8.06,8.76,9.18c4.92,1.35,10.15.25,15.08-1.06,3.11-.83,6.3-1.79,8.79-3.83s4.13-5.45,3.19-8.54c2.14,1.08,2.95,3.9,2.35,6.22s-2.29,4.2-4.09,5.78c-5.96,5.24-13.55,8.15-20.97,10.96-3.57,1.35-7.16,2.71-10.85,3.69-8.38,2.22-17.14,2.43-25.81,2.63-5.27.12-8.42-.7-10.75-5.9-3.33-7.43-3.58-15.81-4.37-23.92-1.88-19.14-6.82-45.4-11.99-63.92Z"/><path class="cls-16_video-call-2-48" d="M137.62,373.12c.03,2.31-.03,4.66-.16,7.05-.12,2.38-.34,4.81-.63,7.29-.07.54-.13,1.07-.2,1.62-.23,1.69-.48,3.4-.79,5.13-.01.05-.03.12-.03.19-.17.95-.36,1.92-.55,2.9.82,5.32.13,10.7-1.93,15.58h-.01c-4.86.16-9.64.09-14.36-.23-9.27-.6-18.33-2.15-27.4-4.89-.03,0-.04-.01-.05-.01-9.09-4.83-17.65-10.49-25.05-17.63-2.07-1.77-3.72-3.98-4.82-6.46-.81-2.69-1.07-5.49-.82-8.29.27-15.59-1.79-31.1-6.07-46.02-.93-3.25-1.97-6.47-3.12-9.66-1.29-3.61-2.73-7.17-4.28-10.68-3.68-8.29-8.14-16.37-9.82-25.27-.93-4.86-.98-9.84-.16-14.72.04-.87.38-1.71.94-2.36.86-.68,1.96-.98,3.06-.85,11.2.31,21.38,6.74,32.45,8.61,5.68.97,11.58.71,17.1,2.35,7.86,2.31,13.9,8.02,18.67,14.84,2.5,3.55,4.65,7.39,6.53,11.21,2.87,5.84,5.56,11.43,7.99,16.87,1.45,3.26,2.81,6.47,4.07,9.66,4.14,10.45,7.14,20.57,8.55,31.2.01.07.03.13.03.2.54,4.03.83,8.14.87,12.37Z"/><path class="cls-6_video-call-2-48" d="M137.62,373.12c.03,2.31-.03,4.66-.16,7.05-.12,2.38-.34,4.81-.63,7.29-.07.54-.13,1.07-.2,1.62-.23,1.69-.48,3.4-.79,5.13-.01.05-.03.12-.03.19-.17.95-.36,1.92-.55,2.9.82,5.32.13,10.7-1.93,15.58h-.01c-4.86.16-9.64.09-14.36-.23-9.27-.6-18.33-2.15-27.4-4.89-.03,0-.04-.01-.05-.01-9.09-4.83-17.65-10.49-25.05-17.63-2.07-1.77-3.72-3.98-4.82-6.46-.81-2.69-1.07-5.49-.82-8.29.27-15.59-1.79-31.1-6.07-46.02-.93-3.25-1.97-6.47-3.12-9.66-1.29-3.61-2.73-7.17-4.28-10.68-3.68-8.29-8.14-16.37-9.82-25.27-.93-4.86-.98-9.84-.16-14.72.04-.87.38-1.71.94-2.36.86-.68,1.96-.98,3.06-.85,11.2.31,21.38,6.74,32.45,8.61,5.68.97,11.58.71,17.1,2.35,7.86,2.31,13.9,8.02,18.67,14.84,2.5,3.55,4.65,7.39,6.53,11.21,2.87,5.84,5.56,11.43,7.99,16.87,1.45,3.26,2.81,6.47,4.07,9.66,4.14,10.45,7.14,20.57,8.55,31.2.01.07.03.13.03.2.54,4.03.83,8.14.87,12.37Z"/></g></svg>