<svg version="1.1" id="Layer_1" xmlns="http://www.w3.org/2000/svg" xmlns:xlink="http://www.w3.org/1999/xlink" x="0px" y="0px" viewBox="0 0 500 500" style="width: 151px;" xml:space="preserve" data-imageid="video-call-1-55" imageName="Video Call 1" class="illustrations_image">
<style type="text/css">
	.st0_video-call-1-55{fill:#D1D3D4;}
	.st1_video-call-1-55{fill:#231F20;}
	.st2_video-call-1-55{fill:#FFFFFF;}
	.st3_video-call-1-55{fill:#68E1FD;}
</style>
<path id="Floor_video-call-1-55" class="st0_video-call-1-55" d="M459.3,370.2H40.7c-0.4,0-0.7-0.3-0.7-0.7c0-0.4,0.3-0.7,0.7-0.7l0,0h418.7c0.4,0,0.7,0.3,0.7,0.7&#10;&#9;C460.1,369.9,459.7,370.2,459.3,370.2z"/>
<g id="Smartphone_video-call-1-55">
	<path class="st1_video-call-1-55" d="M382,397.9H228.5c-5.4,0.1-9.7-4.2-9.8-9.6c0-0.2,0-0.5,0-0.7l15.4-292.8c0.4-5.8,5.1-10.3,10.9-10.3h153.5&#10;&#9;&#9;c5.4-0.1,9.7,4.2,9.8,9.6c0,0.2,0,0.5,0,0.7l-15.4,292.8C392.5,393.3,387.8,397.8,382,397.9z"/>
	<path class="st1_video-call-1-55" d="M382,398.5H228.5c-5.7,0.1-10.4-4.5-10.4-10.2c0-0.3,0-0.5,0-0.8l15.4-292.8c0.4-6.1,5.4-10.9,11.5-10.9h153.5&#10;&#9;&#9;c5.7-0.1,10.4,4.5,10.4,10.2c0,0.3,0,0.5,0,0.8l-15.4,292.8C393.1,393.7,388.1,398.5,382,398.5z M245,85.1&#10;&#9;&#9;c-5.4,0.1-9.9,4.3-10.2,9.7l-15.4,292.8c-0.3,5,3.4,9.3,8.3,9.6c0.3,0,0.5,0,0.8,0H382c5.4-0.1,9.9-4.3,10.2-9.7l15.4-292.8&#10;&#9;&#9;c0.3-5-3.4-9.3-8.3-9.6c-0.3,0-0.5,0-0.8,0L245,85.1z"/>
	<path class="st2_video-call-1-55" d="M370.6,397.4H217.1c-5.4,0.1-9.7-4.2-9.8-9.6c0-0.2,0-0.5,0-0.7l15.4-292.8c0.4-5.8,5.1-10.3,10.9-10.3h153.5&#10;&#9;&#9;c5.4-0.1,9.7,4.2,9.8,9.6c0,0.2,0,0.5,0,0.7l-15.4,292.8C381.1,392.8,376.4,397.3,370.6,397.4z"/>
	<path class="st1_video-call-1-55" d="M370.6,398.1H217.1c-5.8,0.1-10.5-4.6-10.5-10.3c0-0.3,0-0.5,0-0.8L222,94.2c0.4-6.1,5.4-10.9,11.6-11h153.6&#10;&#9;&#9;c5.8-0.1,10.5,4.6,10.5,10.3c0,0.3,0,0.5,0,0.8l-15.4,292.8C381.8,393.3,376.8,398.1,370.6,398.1z M233.6,84.7&#10;&#9;&#9;c-5.4,0.1-9.8,4.3-10.1,9.6l-15.4,292.8c-0.3,5,3.5,9.2,8.4,9.5c0.2,0,0.4,0,0.6,0h153.5c5.4-0.1,9.8-4.3,10.1-9.6l15.4-292.8&#10;&#9;&#9;c0.3-5-3.5-9.2-8.4-9.5c-0.2,0-0.4,0-0.6,0L233.6,84.7z"/>
	<path class="st0_video-call-1-55" d="M360.8,379h-132c-4.6,0.1-8.5-3.7-8.5-8.3c0-0.2,0-0.5,0-0.7l13.6-257.8c0.3-5,4.4-8.8,9.4-8.9h132&#10;&#9;&#9;c4.6-0.1,8.5,3.7,8.5,8.3c0,0.2,0,0.5,0,0.7l-13.6,257.7C369.8,375.1,365.7,378.9,360.8,379z M243.2,104.8&#10;&#9;&#9;c-4.2,0.1-7.6,3.3-7.9,7.5l-13.6,257.8c-0.2,3.9,2.7,7.2,6.6,7.4c0.1,0,0.3,0,0.4,0h132c4.2-0.1,7.6-3.3,7.9-7.5l13.6-257.8&#10;&#9;&#9;c0.2-3.9-2.7-7.2-6.6-7.4c-0.1,0-0.3,0-0.4,0L243.2,104.8z"/>
	<path class="st0_video-call-1-55" d="M313.2,95.7h-28.8c-0.4,0-0.7-0.3-0.7-0.7c0-0.4,0.3-0.7,0.7-0.7h28.8c0.4,0,0.7,0.3,0.7,0.7&#10;&#9;&#9;C314,95.3,313.6,95.7,313.2,95.7L313.2,95.7z"/>
	<path class="st0_video-call-1-55" d="M322.5,95.7h-5c-0.4,0-0.7-0.3-0.7-0.7c0-0.4,0.3-0.7,0.7-0.7h5c0.4,0,0.7,0.3,0.7,0.7&#10;&#9;&#9;C323.3,95.3,322.9,95.7,322.5,95.7z"/>
	<path class="st0_video-call-1-55" d="M400,154.4L400,154.4c-0.4,0-0.7-0.4-0.7-0.8c0,0,0,0,0,0l1.6-30.3c0-0.4,0.4-0.7,0.8-0.7c0,0,0,0,0,0&#10;&#9;&#9;c0.4,0,0.7,0.4,0.7,0.8l-1.6,30.3C400.8,154.1,400.4,154.4,400,154.4C400,154.4,400,154.4,400,154.4z"/>
</g>
<g id="Male_character_video-call-1-55">
	<path class="st2_video-call-1-55" d="M249,309.4c0,0,4.3,13.8,2.4,13c-1.1-0.4-2.1-1.1-3-1.9c0,0,5,5.6,1.4,6.8s-8.3,1.8-9.5,0s-1.2-17.9-1.2-17.9"/>
	<path class="st1_video-call-1-55" d="M243.6,329.2c-1.7,0-3.2-0.4-4-1.4c-1.3-1.8-1.4-14.5-1.3-18.3c0-0.4,0.3-0.8,0.8-0.8l0,0l0,0&#10;&#9;&#9;c0.4,0,0.8,0.3,0.8,0.7c0,0,0,0,0,0c0,7.8,0.4,16.4,1.1,17.4c0.8,1.1,4.6,1,8.7-0.3c0.6-0.2,0.7-0.5,0.7-0.6&#10;&#9;&#9;c0.3-1.2-1.5-3.9-2.5-4.9c-0.2-0.4-0.1-0.8,0.2-1.1c0.3-0.2,0.6-0.2,0.9,0.1c0.6,0.6,1.4,1.1,2.2,1.5c-0.1-1.8-1.4-7.2-2.9-11.8&#10;&#9;&#9;c-0.1-0.4,0.2-0.8,0.6-0.9c0.4-0.1,0.7,0.1,0.9,0.4c3.9,12.5,2.9,13.5,2.5,13.8c-0.3,0.3-0.7,0.4-1.1,0.2c0.6,0.9,0.8,2.1,0.6,3.2&#10;&#9;&#9;c-0.2,0.8-0.9,1.5-1.7,1.7C248,328.7,245.8,329.1,243.6,329.2z"/>
	<polygon class="st1_video-call-1-55" points="334.9,277.1 340.3,378.2 313.4,378.2 301.9,307.7 286.3,378.2 259.2,378.2 270.7,272 &#9;"/>
	<path class="st1_video-call-1-55" d="M340.3,379h-26.9c-0.4,0-0.7-0.3-0.8-0.6l-10.9-66.6l-14.7,66.7c-0.1,0.4-0.4,0.6-0.7,0.6h-27.2&#10;&#9;&#9;c-0.2,0-0.4-0.1-0.6-0.3c-0.1-0.2-0.2-0.4-0.2-0.6L270,272c0.1-0.4,0.4-0.7,0.8-0.7l64.2,5c0.4,0,0.7,0.3,0.7,0.7l5.3,101.1&#10;&#9;&#9;c0,0.2-0.1,0.4-0.2,0.6C340.7,378.9,340.5,379,340.3,379z M314,377.5h25.4l-5.3-99.7l-62.8-4.9L260,377.5h25.7l15.4-70&#10;&#9;&#9;c0.1-0.4,0.4-0.6,0.8-0.6c0.4,0,0.7,0.3,0.7,0.6L314,377.5z"/>
	<path class="st2_video-call-1-55" d="M355,201.5c0,0,2-13.7,1.9-15.1s-1.7-11.6-1.5-14s3.7-3.1,5.1,2.4c0,0,0.7-12.9,2.4-13.5s7,1.6,8.6,3.9&#10;&#9;&#9;s-2.6,37.4-2.6,37.4"/>
	<path class="st1_video-call-1-55" d="M368.9,203.4L368.9,203.4c-0.5,0-0.8-0.4-0.8-0.8c0,0,0,0,0,0c2-16.7,3.6-35.3,2.8-36.9&#10;&#9;&#9;c-1.4-2.1-6.4-4-7.6-3.6c-0.8,0.7-1.6,7.2-1.9,12.8c0,0.4-0.3,0.7-0.7,0.7c-0.4,0-0.7-0.2-0.8-0.6c-0.7-2.6-1.9-3.7-2.7-3.7&#10;&#9;&#9;c-0.6,0.1-1,0.6-1,1.1c-0.2,1.8,0.7,8.5,1.2,11.7c0.1,1,0.2,1.8,0.3,2.1c0.1,1.4-1.5,13-1.9,15.3c-0.1,0.4-0.5,0.7-0.9,0.6&#10;&#9;&#9;c-0.4-0.1-0.7-0.5-0.6-0.9c0.8-5.3,2-14,1.9-15l-0.3-2c-0.7-4.9-1.4-10.3-1.2-12.1c0.1-1.3,1.1-2.3,2.4-2.4c1.2,0,2.4,0.7,3,1.8&#10;&#9;&#9;c0.4-5.2,1.2-10.4,2.7-11c2.2-0.8,7.8,1.7,9.5,4.2s-1.5,29.6-2.5,37.9C369.6,203.1,369.3,203.4,368.9,203.4z"/>
	<path class="st2_video-call-1-55" d="M360.6,174.8c0,0,4.8,3.3,2.7,7.6"/>
	<path class="st1_video-call-1-55" d="M363.3,183.2c-0.1,0-0.2,0-0.4-0.1c-0.4-0.2-0.5-0.6-0.3-1c1.8-3.6-2.4-6.6-2.4-6.6c-0.3-0.2-0.4-0.7-0.2-1.1&#10;&#9;&#9;c0.2-0.3,0.7-0.4,1.1-0.2c1.9,1.3,4.9,4.7,2.9,8.5C363.8,183,363.6,183.2,363.3,183.2z"/>
	<path class="st3_video-call-1-55 targetColor" d="M320,184.6c0,0-31.7-3-45.4,6.3s-34.4,54.9-35.6,63.4c-1.2,8.5-2,59.7-2,59.7l14.7-1.8c0,0,6.3-48.3,8.4-51.9&#10;&#9;&#9;s8.3-14.8,8.3-14.8l-4.5,43.2l74.8-1.9l-2-52.6c0,0,14.9,32.2,21,24.6s15-67.9,15-67.9l-18.1-1.4c0,0-2.4,19.4-3.9,29&#10;&#9;&#9;C348,213.6,345.2,189.7,320,184.6z" style="fill: rgb(104, 225, 253);"/>
	<path class="st3_video-call-1-55 targetColor" d="M266.6,184.7c-0.2-2.7,2-6.1,3.5-8c2.5-3,6.1-5,9.7-6.6c15.4-7,39.7-12.1,52.5,0.8c4,4,8.8,11.4,3.3,16.6&#10;&#9;&#9;c-1.8,1.7-4.3,2.3-6.4,3.6c-3.1,1.9-5,5-7.6,7.4c-2.4,2.1-6.2,2.9-9.2,3.9c-7.3,2.6-15.5,4.6-22.9,2c-6.2-2.1-8.2-9.6-13.6-12.8&#10;&#9;&#9;c-1.6-0.8-3.2-1.5-4.9-2.1c-1.7-0.6-3.1-1.8-4-3.3C266.8,185.7,266.7,185.2,266.6,184.7z" style="fill: rgb(104, 225, 253);"/>
	<path class="st1_video-call-1-55" d="M295.1,208.5c1.4,2.4,3.9,4,6.7,4.2c2.6,0,5.1-1.1,6.9-3c1.8-1.9,3.2-4.1,4.1-6.5c1.4-3.3,2.4-6.7,3-10.2&#10;&#9;&#9;c0.5-2.3,0.5-4.6,0-6.9c-0.5-2.3-1.9-4.2-4-5.3c-5.4-2.6-17.3,0.7-20,6.7C289.2,193.2,292.1,203.9,295.1,208.5z"/>
	<path class="st1_video-call-1-55" d="M302.1,213.5h-0.4c-3-0.3-5.7-2-7.3-4.6l0,0c-3.1-4.9-6-15.8-3.3-21.7c1.2-2.7,4.3-5.1,8.5-6.6&#10;&#9;&#9;c4.6-1.7,9.6-1.9,12.5-0.4c2.3,1.2,3.9,3.3,4.4,5.8c0.5,2.4,0.5,4.8,0,7.2c-0.6,3.6-1.6,7.1-3,10.4c-1,2.5-2.4,4.8-4.3,6.8&#10;&#9;&#9;C307.4,212.3,304.8,213.4,302.1,213.5z M295.7,208.1c1.3,2.2,3.6,3.6,6.1,3.9c2.4,0,4.7-1,6.4-2.8c1.7-1.8,3-3.9,3.9-6.3&#10;&#9;&#9;c1.4-3.2,2.4-6.6,2.9-10.1c0.4-2.2,0.4-4.4,0-6.6c-0.4-2-1.7-3.8-3.5-4.8c-2.6-1.2-7.2-1-11.4,0.5c-3.8,1.4-6.5,3.5-7.6,5.9&#10;&#9;&#9;C290,193.3,292.8,203.6,295.7,208.1L295.7,208.1z"/>
	<path class="st2_video-call-1-55" d="M322.2,160.7c1.1-4.1,2.6-8.2,3.1-12.4s0.3-8.6-2-12.1c-0.8-1.4-2.1-2.6-3.7-3.1c-1.7-0.5-3.5,0-4.6,1.3&#10;&#9;&#9;c-1.1-1.6-2.7-2.8-4.4-3.6c-4.1-2.1-8.8-3-13.4-2.6c-4.8,0.5-9.2,2.7-12.5,6.2c-1.2,1.6-2.5,3.1-3.8,4.5c-2.5,2.3-5.9,3.2-9.2,2.5&#10;&#9;&#9;c0.5,6.2,4.2,11.7,9,15.3s10.8,5.6,16.9,6.9c3.2,0.8,6.5,1,9.8,0.7c3.4-0.4,6.5-2,8.6-4.6"/>
	<path class="st1_video-call-1-55" d="M304.8,165.3c-2.4,0-4.9-0.3-7.2-0.9c-7.4-1.6-12.8-3.8-17.2-7.1c-5.5-4.1-8.9-9.9-9.3-15.9&#10;&#9;&#9;c0-0.2,0.1-0.5,0.3-0.6c0.2-0.2,0.4-0.2,0.7-0.2c3,0.6,6.2-0.2,8.5-2.3c0.8-0.8,1.6-1.7,2.3-2.6c0.5-0.6,1-1.2,1.5-1.8&#10;&#9;&#9;c3.4-3.7,8-6,13-6.4c4.8-0.4,9.5,0.5,13.8,2.7c1.6,0.7,3,1.7,4.2,3c1.4-1.1,3.1-1.4,4.8-0.9c1.7,0.6,3.2,1.8,4.1,3.4&#10;&#9;&#9;c2.6,4.1,2.5,9.1,2.1,12.6c-0.5,3.1-1.3,6.3-2.2,9.3c-0.3,1.1-0.6,2.1-0.9,3.2c-0.1,0.4-0.5,0.6-0.9,0.5s-0.6-0.5-0.5-0.9&#10;&#9;&#9;c0.3-1.1,0.6-2.1,0.9-3.2c1-3,1.7-6,2.2-9.1c0.5-3.3,0.5-7.9-1.8-11.6c-0.7-1.3-1.9-2.3-3.3-2.8c-1.4-0.4-2.9,0-3.8,1.1&#10;&#9;&#9;c-0.2,0.2-0.4,0.3-0.6,0.3c-0.3,0-0.5-0.1-0.6-0.4c-1-1.4-2.5-2.6-4.1-3.3c-4-2.1-8.5-2.9-13-2.5c-4.6,0.4-8.9,2.6-12,5.9&#10;&#9;&#9;c-0.5,0.6-1,1.1-1.4,1.7c-0.7,1-1.6,2-2.5,2.8c-2.4,2.2-5.6,3.2-8.9,2.9c0.9,5.6,4,10.5,8.6,13.8c4.2,3.1,9.4,5.3,16.6,6.8&#10;&#9;&#9;c3.1,0.8,6.3,1,9.5,0.7c3.2-0.3,6.1-1.9,8.2-4.3c0.3-0.3,0.7-0.4,1.1-0.1s0.4,0.7,0.1,1.1l0,0c-2.3,2.7-5.6,4.5-9.1,4.9&#10;&#9;&#9;C306.6,165.2,305.7,165.3,304.8,165.3z"/>
	<path class="st2_video-call-1-55" d="M294.8,179.4l-2.5,11.4c0,0-0.7,13.1,9.1,10.8s13.4-13,13.4-13l3.8-25.3c0,0-6.9-3.9-3.9-19.5&#10;&#9;&#9;c-8,3.3-16.8,4.4-25.4,3.3c0,0-5.4,16.9-4.7,24.4S294.8,179.4,294.8,179.4z"/>
	<path class="st1_video-call-1-55" d="M299.3,202.7c-1.6,0-3.1-0.5-4.3-1.5c-3.8-3.1-3.4-10.1-3.4-10.4l2.3-10.7c-2.5-0.3-9.3-1.8-9.9-8.5&#10;&#9;&#9;c-0.7-7.6,4.5-24,4.8-24.7c0.1-0.4,0.5-0.6,0.8-0.5c8.5,1.1,17.1,0,25-3.2c0.4-0.2,0.8,0,1,0.3c0.1,0.2,0.1,0.3,0.1,0.5&#10;&#9;&#9;c-2.9,14.8,3.4,18.6,3.5,18.7c0.3,0.2,0.4,0.5,0.4,0.8l-3.9,25.4c-0.2,0.6-3.8,11.3-13.9,13.6C300.8,202.6,300.1,202.7,299.3,202.7&#10;&#9;&#9;z M293.1,191.1c0,0-0.3,6.4,2.9,9c1.3,1.1,3.1,1.4,5.3,0.9c9.3-2.1,12.8-12.4,12.8-12.5l3.8-24.7c-1.5-1.2-6.2-5.9-4-18.6&#10;&#9;&#9;c-7.6,2.8-15.8,3.8-23.8,2.8c-1,3.1-5.1,17-4.5,23.5c0.6,6.8,9,7.2,9.4,7.2c0.2,0,0.4,0.1,0.6,0.3c0.1,0.2,0.2,0.4,0.1,0.6&#10;&#9;&#9;L293.1,191.1L293.1,191.1z"/>
	<path class="st2_video-call-1-55" d="M299.4,156.6c0,0-5.1,8.5-3.7,9.7s4.9,0,4.9,0"/>
	<path class="st1_video-call-1-55" d="M297.6,167.6c-0.9,0.1-1.7-0.2-2.4-0.8c-1.5-1.4,1.2-6.6,3.6-10.6c0.2-0.3,0.7-0.5,1-0.3c0,0,0,0,0,0&#10;&#9;&#9;c0.3,0.2,0.5,0.7,0.2,1c-2.4,4-4.2,8.1-3.8,8.9c0.7,0.7,3,0.2,4.1-0.2c0.4-0.1,0.8,0,0.9,0.4c0,0,0,0,0,0c0.1,0.4-0.1,0.8-0.5,0.9&#10;&#9;&#9;C299.8,167.4,298.7,167.6,297.6,167.6z"/>
	<ellipse transform="matrix(1 -1.047197e-03 1.047197e-03 1 -0.1623 0.3199)" class="st1_video-call-1-55" cx="305.4" cy="155.1" rx="1" ry="2.2"/>
	<ellipse transform="matrix(1 -1.047197e-03 1.047197e-03 1 -0.1623 0.3064)" class="st1_video-call-1-55" cx="292.5" cy="155.1" rx="1" ry="2.2"/>
	<path class="st2_video-call-1-55" d="M312.6,159.4c0.9-1.5,2.1-2.8,3.5-3.8c0.7-0.6,1.6-1,2.5-1.1c0.7,0,1.5,0.2,2.1,0.6c1.9,1.1,3.1,3.1,3.5,5.2&#10;&#9;&#9;c0.2,1,0.1,2-0.3,3c-0.6,1.5-1.8,2.8-3.2,3.6c-1.4,0.8-2.9,1.4-4.5,1.9"/>
	<path class="st1_video-call-1-55" d="M316.3,169.7c-0.3,0-0.6-0.2-0.7-0.5c-0.2-0.4,0-0.8,0.4-1c0,0,0,0,0.1,0c1.5-0.4,3-1.1,4.4-1.8&#10;&#9;&#9;c1.3-0.7,2.3-1.9,2.9-3.2c0.3-0.9,0.4-1.8,0.2-2.7c-0.3-1.9-1.4-3.7-3.1-4.7c-0.5-0.3-1.1-0.5-1.7-0.5c-0.8,0.1-1.5,0.5-2.1,1&#10;&#9;&#9;c-1.3,1-2.5,2.2-3.4,3.6c-0.2,0.3-0.7,0.4-1,0.2c-0.4-0.2-0.5-0.7-0.3-1c1-1.5,2.3-2.9,3.7-4c0.9-0.7,1.9-1.1,3-1.2&#10;&#9;&#9;c0.9,0,1.8,0.3,2.5,0.8c2.1,1.3,3.5,3.4,3.8,5.8c0.2,1.1,0.1,2.3-0.3,3.4c-0.7,1.7-1.9,3.1-3.5,4c-1.5,0.8-3,1.5-4.7,2&#10;&#9;&#9;C316.5,169.7,316.4,169.7,316.3,169.7z"/>
	<path class="st1_video-call-1-55" d="M294.8,179.4c0,0,9,0.4,14-2.7c0,0-6.2,11.6-16.5,14.2L294.8,179.4z"/>
	<path class="st1_video-call-1-55" d="M292.3,191.7c-0.2,0-0.4-0.1-0.5-0.2c-0.2-0.2-0.3-0.5-0.2-0.7l2.5-11.4c0.1-0.4,0.4-0.6,0.8-0.6&#10;&#9;&#9;c0.1,0,8.8,0.3,13.6-2.6c0.3-0.2,0.7-0.1,0.9,0.1c0.2,0.2,0.3,0.6,0.1,0.9c-0.3,0.5-6.5,12-17,14.6L292.3,191.7z M295.4,180.2&#10;&#9;&#9;l-2,9.6c6.5-2.1,11.2-8,13.4-11.2C303.1,179.7,299.2,180.3,295.4,180.2L295.4,180.2z"/>
	<path class="st1_video-call-1-55" d="M298.7,172.5c-2.5-0.1-4.8-1.2-6.5-3.1c-0.3-0.3-0.3-0.8,0.1-1.1s0.8-0.3,1.1,0.1l0,0c0,0,2.3,2.6,5.4,2.6h0.1&#10;&#9;&#9;c1.9,0,3.7-1.1,5.4-3.1c0.3-0.3,0.7-0.4,1-0.1c0.3,0.3,0.4,0.7,0.1,1c-2,2.4-4.2,3.6-6.5,3.7L298.7,172.5z"/>
	<path class="st1_video-call-1-55" d="M287.8,206.8c-0.3,0-0.5-0.2-0.7-0.4c-3.8-6.6-9.2-12.2-15.7-16.2c-0.3-0.2-0.4-0.6-0.3-1&#10;&#9;&#9;c0.2-0.4,0.7-0.5,1-0.3c6.7,4.2,12.3,10,16.2,16.9c0.2,0.4,0,0.8-0.3,1C288,206.7,287.9,206.8,287.8,206.8z"/>
	<path class="st1_video-call-1-55" d="M316.4,206.4c-0.1,0-0.3,0-0.4-0.1c-0.4-0.2-0.5-0.7-0.3-1.1c0.3-0.4,6.5-11.2,14.9-16.5&#10;&#9;&#9;c0.4-0.2,0.8-0.1,1,0.2c0,0,0,0,0,0c0.2,0.3,0.1,0.8-0.2,1c0,0,0,0,0,0c-8,5.1-14.3,15.8-14.4,15.9&#10;&#9;&#9;C316.9,206.3,316.7,206.4,316.4,206.4z"/>
	<path class="st1_video-call-1-55" d="M265.7,272.8L265.7,272.8c-0.5-0.1-0.7-0.4-0.7-0.8l6.4-63c0.1-0.4,0.4-0.7,0.8-0.7c0.4,0,0.7,0.4,0.7,0.8&#10;&#9;&#9;l-6.4,63C266.5,272.5,266.1,272.8,265.7,272.8z"/>
	<path class="st1_video-call-1-55" d="M352.2,259.3c-0.2,0-0.3,0-0.4-0.1c-9.9-6.7-22.5-37.9-23-39.2c-0.2-0.4,0-0.8,0.4-1c0.4-0.2,0.8,0,1,0.4&#10;&#9;&#9;c0.1,0.3,13,32.1,22.5,38.5c0.3,0.2,0.4,0.7,0.2,1.1c0,0,0,0,0,0C352.7,259.2,352.5,259.3,352.2,259.3z"/>
</g>
<g id="Character_Female_video-call-1-55">
	<path class="st2_video-call-1-55" d="M73.6,206.6c0,0-18.9,41.6-8,46.8c10.9,5.2,55-5.5,55-5.5L118,227L73.6,206.6z"/>
	<path class="st1_video-call-1-55" d="M75.2,255.5c-4.2,0-7.7-0.4-9.9-1.5c-4.9-2.3-5-11.1-0.5-26.2c2.3-7.3,5-14.5,8.1-21.5c0.2-0.4,0.6-0.5,1-0.4&#10;&#9;&#9;c0,0,0,0,0,0l44.4,20.4c0.2,0.1,0.4,0.3,0.4,0.6l2.6,20.9c0,0.4-0.2,0.7-0.6,0.8C119.3,248.9,91.8,255.5,75.2,255.5z M73.9,207.5&#10;&#9;&#9;c-5.3,11.9-16.3,41.2-8.1,45.1c9.8,4.7,48.5-4.1,53.9-5.4l-2.5-19.8L73.9,207.5z"/>
	<path class="st3_video-call-1-55 targetColor" d="M91.4,166.9c0,0-7.8,3.5-23.8,47.1l22.3,10L91.4,166.9z" style="fill: rgb(104, 225, 253);"/>
	<path class="st2_video-call-1-55" d="M148.7,209.1c0,0,19.4,18,30.1,15.7s4.4-53.4,9.4-68.4c5.4-16.3-1.3-21.2-4.4-22.8c-2.2-1.1-2.4,9.4-4,11.9&#10;&#9;&#9;c-1.1-2.9-0.4-5.6-2.7-3.4c-1.6,1.5-0.6,14.4-0.6,14.4s-6.3,41.6-7.5,41.6l-8.6-7.4"/>
	<path class="st1_video-call-1-55" d="M176.8,225.8c-11.1,0-27.9-15.4-28.6-16.1c-0.3-0.2-0.4-0.7-0.1-1c0.2-0.3,0.7-0.4,1-0.1c0,0,0.1,0.1,0.1,0.1&#10;&#9;&#9;c0.2,0.2,19.2,17.7,29.4,15.6c5.9-1.2,6.2-20.6,6.5-37.8c0.2-12.4,0.4-24.1,2.4-30.2c5-14.9-0.4-20.1-4-21.9&#10;&#9;&#9;c-0.5,0.3-1.1,3.7-1.5,5.7c-0.4,2.5-0.9,4.8-1.6,6c-0.2,0.2-0.4,0.4-0.7,0.4c-0.3,0-0.5-0.2-0.6-0.5c-0.3-0.9-0.5-1.7-0.7-2.6&#10;&#9;&#9;c-0.1-0.3-0.1-0.7-0.2-1c-0.2,0.1-0.4,0.3-0.6,0.5c-0.8,0.8-0.9,7.8-0.4,13.8c0,0.1,0,0.1,0,0.2c-6.4,42.2-7.4,42.2-8.2,42.2&#10;&#9;&#9;c-0.2,0-0.4-0.1-0.5-0.2l-8.6-7.4c-0.3-0.3-0.3-0.8-0.1-1.1s0.8-0.3,1.1-0.1l7.9,6.7c1.3-4.4,4.9-26.4,7-40.4&#10;&#9;&#9;c-0.2-3.2-0.8-13.3,0.9-14.9c0.6-0.6,1.4-1.2,2.1-0.9s0.9,1.1,1.1,2.2c0,0,0,0.1,0,0.1c0.2-1,0.4-2.2,0.6-3.3&#10;&#9;&#9;c0.7-3.8,1.2-6.2,2.4-6.8c0.4-0.2,0.8-0.2,1.2,0c4.1,2,10.1,7.7,4.8,23.6c-2,5.9-2.2,17.5-2.4,29.7c-0.3,19.4-0.6,37.8-7.6,39.2&#10;&#9;&#9;C178.3,225.7,177.6,225.8,176.8,225.8z"/>
	<path class="st2_video-call-1-55" d="M74.4,412.9c1.8,0.8,31.1-3.2,28.9-5s-11.9-7.6-11.9-7.6l5.6-61.9l-17.5-9.5C79.5,328.8,72.6,412,74.4,412.9z"/>
	<path class="st1_video-call-1-55" d="M75.6,413.7c-0.5,0-1.1,0-1.6-0.2l0,0c-0.7-0.4-1.6-0.7,1.4-43.1c1.5-20.7,3.2-41.5,3.2-41.7&#10;&#9;&#9;c0-0.4,0.4-0.7,0.8-0.7c0.1,0,0.2,0,0.3,0.1l17.5,9.5c0.3,0.1,0.4,0.4,0.4,0.7l-5.6,61.4c1.9,1.1,9.6,5.8,11.6,7.4&#10;&#9;&#9;c0.4,0.3,0.5,0.9,0.2,1.3C102.7,410.6,81.8,413.7,75.6,413.7z M74.9,412.2c3.1,0.3,23.8-2.5,27.4-4.2c-2.8-2.1-11.2-7.1-11.3-7.2&#10;&#9;&#9;c-0.2-0.1-0.4-0.4-0.4-0.7l5.6-61.4L80.1,330C77.5,361.4,74.1,407.7,74.9,412.2z"/>
	<path class="st2_video-call-1-55" d="M128.5,347.9l7.1,65.2c0,0,34.6,3.4,32.8,1s-15.9-13-15.9-13l-4.5-57.2L128.5,347.9z"/>
	<path class="st1_video-call-1-55" d="M162.5,415.6c-6.7,0-17.5-0.9-27-1.8c-0.3,0-0.6-0.3-0.7-0.7l-7.1-65.2c0-0.4,0.2-0.7,0.6-0.8l19.4-4&#10;&#9;&#9;c0.4-0.1,0.8,0.2,0.9,0.5c0,0,0,0.1,0,0.1l4.5,56.8c2,1.5,14.1,10.7,15.8,13c0.2,0.3,0.3,0.7,0.1,1.1&#10;&#9;&#9;C168.7,415.3,166.2,415.6,162.5,415.6z M136.3,412.4c13.3,1.3,27.9,2.2,31.1,1.6c-2.4-2.5-11.7-9.7-15.3-12.4&#10;&#9;&#9;c-0.2-0.1-0.3-0.3-0.3-0.5l-4.5-56.3l-18,3.7L136.3,412.4z"/>
	<path class="st1_video-call-1-55" d="M81.6,240.2l-14,112.9c0,0,31.6,19.7,93.7,7.3l-19.1-112L81.6,240.2z"/>
	<path class="st1_video-call-1-55" d="M121.9,365.2c-10.4,0.1-20.7-1-30.9-3.1c-15.6-3.4-23.5-8.2-23.8-8.4c-0.2-0.2-0.4-0.4-0.3-0.7l14-112.9&#10;&#9;&#9;c0-0.2,0.1-0.4,0.3-0.5c0.2-0.1,0.4-0.2,0.6-0.1l60.6,8.1c0.3,0,0.6,0.3,0.6,0.6l19.1,112c0.1,0.4-0.2,0.8-0.6,0.9&#10;&#9;&#9;C148.4,363.7,135.2,365.1,121.9,365.2z M68.4,352.7c3.9,2.2,35.2,18.3,92.1,7.1L141.5,249l-59.3-8L68.4,352.7z"/>
	<path class="st2_video-call-1-55" d="M110.8,155.6c-3.4,0.4-6.9-0.3-9.9-2c-3.8-2.3-6.1-6.6-7.4-10.9c-4.6-15.5-0.2-35.9,18.7-38&#10;&#9;&#9;c10.3-0.9,20,5,24,14.5c0,0.1,3.6,0.9,4.1,1.1c1.6,0.8,3.1,2,4.1,3.5c1.9,2.8,1.2,5.8,0.3,9c-1.9,6.6-6.7,12.5-13.3,14.7&#10;&#9;&#9;c-3.2,1.1-4.5,0.8-7.1,2.8c-2.5,2.1-5.6,3.6-8.8,4.4C114,155.2,112.4,155.5,110.8,155.6z"/>
	<path class="st1_video-call-1-55" d="M109.2,156.4c-3,0.1-6-0.7-8.7-2.2c-3.5-2.1-6.2-6-7.7-11.3c-3.2-10.5-2-21.8,3-29.3c3.7-5.5,9.7-9.1,16.3-9.6&#10;&#9;&#9;c10.5-0.9,20.4,5,24.7,14.7l1.2,0.3c0.9,0.2,1.8,0.4,2.6,0.7c1.8,0.9,3.3,2.2,4.4,3.8c2,3.1,1.4,6.2,0.4,9.6&#10;&#9;&#9;c-2,7.2-7.3,13-13.8,15.2c-1.1,0.4-1.9,0.6-2.6,0.8c-1.5,0.3-3,0.9-4.2,1.9c-2.6,2.2-5.7,3.8-9.1,4.5c-1.6,0.4-3.3,0.6-4.9,0.8l0,0&#10;&#9;&#9;C110.3,156.4,109.7,156.4,109.2,156.4z M110.8,155.6L110.8,155.6z M114.4,105.4c-0.7,0-1.4,0-2.2,0.1c-6.2,0.5-11.8,3.8-15.2,9&#10;&#9;&#9;c-4.7,7.1-5.8,18.1-2.8,28.1c1,3.4,3.1,8,7.1,10.4c2.9,1.6,6.2,2.3,9.4,1.9l0,0c1.6-0.1,3.1-0.4,4.7-0.7c3.1-0.7,6-2.2,8.5-4.2&#10;&#9;&#9;c1.4-1.1,3-1.9,4.7-2.2c0.7-0.2,1.5-0.4,2.5-0.7c6-2.1,10.9-7.5,12.8-14.2c0.9-3.2,1.5-5.8-0.2-8.4c-1-1.4-2.3-2.5-3.8-3.3&#10;&#9;&#9;c-0.2-0.1-1.5-0.4-2.3-0.6c-1.9-0.5-1.9-0.5-2.1-0.9C132,111.1,123.7,105.5,114.4,105.4z"/>
	<path class="st2_video-call-1-55" d="M134.6,135.7c0,0,5.1,8.9,3.9,10.5s-5.1,0.3-5.1,0.3"/>
	<path class="st1_video-call-1-55" d="M136.2,147.9c-1.1,0-2.1-0.2-3.1-0.6c-0.4-0.2-0.5-0.6-0.3-1c0.2-0.3,0.5-0.5,0.8-0.4c0.9,0.3,3.5,1,4.2,0&#10;&#9;&#9;c0.5-0.7-1.3-5.3-3.9-9.7c-0.2-0.4-0.1-0.8,0.3-1c0.4-0.2,0.8-0.1,1,0.3c1.6,2.8,5.2,9.5,3.8,11.4&#10;&#9;&#9;C138.3,147.6,137.3,148,136.2,147.9z"/>
	<path class="st2_video-call-1-55" d="M134,124.4c3.4,3.1,2,9.2,1.7,13.3c-0.4,5.7-0.9,11.3-1.5,16.9c-0.4,3.6-9.7,3.1-11.3,1.9l0.6,14.2l-19-8.6&#10;&#9;&#9;l1.6-16.3c0,0,6.1,0.4,10.2-6.7s4.6-18.3,4.6-18.3S130.7,121.3,134,124.4z"/>
	<path class="st1_video-call-1-55" d="M123.6,171.5c-0.1,0-0.2,0-0.3-0.1l-19.1-8.6c-0.3-0.1-0.5-0.4-0.4-0.8l1.6-16.3c0-0.4,0.4-0.7,0.8-0.7&#10;&#9;&#9;c0.2,0,5.7,0.3,9.5-6.3c3.9-6.8,4.5-17.9,4.5-18c0-0.2,0.1-0.4,0.2-0.5c0.1-0.1,0.3-0.2,0.5-0.2c0.4,0,10.1,0.6,13.6,3.8&#10;&#9;&#9;c3.1,2.8,2.6,7.8,2.2,11.7c-0.1,0.8-0.2,1.5-0.2,2.2c-0.4,5.6-0.9,11.3-1.5,17c-0.2,1.2-1.1,2.2-2.3,2.6c-2.5,1.1-6.7,1-8.9,0.4&#10;&#9;&#9;l0.6,13.1c0,0.3-0.1,0.5-0.3,0.6C123.9,171.5,123.7,171.5,123.6,171.5z M105.3,161.7l17.5,7.9l-0.6-13c0-0.4,0.3-0.8,0.7-0.8&#10;&#9;&#9;c0.2,0,0.3,0,0.5,0.1c0.8,0.6,6,1.2,8.7,0c0.9-0.4,1.3-0.9,1.4-1.4c0.6-5.6,1.1-11.3,1.5-16.9c0.1-0.7,0.1-1.4,0.2-2.2&#10;&#9;&#9;c0.4-3.6,0.9-8.1-1.7-10.5l0,0c-2.6-2.4-9.7-3.1-12-3.3c-0.2,2.7-1.1,11.7-4.6,17.9s-8.3,6.9-10.2,7L105.3,161.7z"/>
	<path class="st3_video-call-1-55 targetColor" d="M134.6,168.1c-8.6-8.7-38.5-12.3-43.2-1.2s-16,81.4-16,81.4c20.4,12.6,72.1,8.3,72.1,8.3l-4.8-37.5&#10;&#9;&#9;C142.7,219.1,144,177.4,134.6,168.1z" style="fill: rgb(104, 225, 253);"/>
	<path class="st1_video-call-1-55" d="M123,156.5c0,0-4.8-0.5-6.8-3.9c0,0-0.1,5.7,7.1,8.6L123,156.5z"/>
	<path class="st1_video-call-1-55" d="M123.3,162c-0.1,0-0.2,0-0.3,0c-7.6-3.1-7.6-9.1-7.6-9.3c0-0.3,0.2-0.6,0.6-0.7c0.3-0.1,0.7,0,0.8,0.3&#10;&#9;&#9;c1.8,3.1,6.2,3.6,6.2,3.6c0.4,0,0.6,0.3,0.7,0.7l0.3,4.7c0,0.3-0.1,0.5-0.3,0.6C123.6,162,123.4,162,123.3,162z M117.5,155.2&#10;&#9;&#9;c1,2.2,2.8,3.9,5,4.9l-0.2-2.9C120.6,156.9,119,156.2,117.5,155.2L117.5,155.2z"/>
	<ellipse transform="matrix(0.1286 -0.9917 0.9917 0.1286 -16.0459 247.5103)" class="st1_video-call-1-55" cx="132.8" cy="132.9" rx="2" ry="0.8"/>
	<path class="st2_video-call-1-55" d="M122.9,138c-0.1-1.4-0.5-2.8-1.3-4c-0.5-1-1.1-1.9-1.9-2.7c-0.8-0.8-1.9-1.2-3-1.1c-1,0.2-1.8,0.8-2.3,1.6&#10;&#9;&#9;c-0.5,0.8-0.8,1.8-0.9,2.8c-0.4,4.3,1.5,8.6,5,11.1l-0.3-0.4"/>
	<path class="st1_video-call-1-55" d="M118.4,146.4c-0.2,0-0.3,0-0.4-0.1c-3.7-2.7-5.7-7.2-5.3-11.8c0.1-1.1,0.4-2.1,1-3.1c0.6-1,1.6-1.8,2.8-2&#10;&#9;&#9;c1.3-0.1,2.7,0.4,3.6,1.3c0.8,0.8,1.5,1.8,2,2.9c0.9,1.3,1.4,2.8,1.4,4.4c0,0.4-0.3,0.7-0.7,0.7c0,0,0,0,0,0&#10;&#9;&#9;c-0.4,0-0.7-0.4-0.7-0.8c-0.1-1.3-0.5-2.5-1.3-3.6c-0.5-0.9-1.1-1.8-1.8-2.5c-0.6-0.6-1.5-1-2.4-0.9c-0.8,0.2-1.4,0.6-1.8,1.3&#10;&#9;&#9;c-0.4,0.7-0.7,1.6-0.8,2.4c-0.4,3.8,1.1,7.5,4,9.9c0.2,0,0.4,0.1,0.5,0.3l0.3,0.4c0.3,0.3,0.3,0.7,0,1&#10;&#9;&#9;C118.8,146.3,118.6,146.4,118.4,146.4z"/>
	<path class="st1_video-call-1-55" d="M72.1,414.9c0,0,37-3.5,37.8-7.4s-13.5-7.7-13.5-7.7s-3.1,5.6-6.1,6.4s-17.5,0.7-17.5,0.7&#10;&#9;&#9;C72.2,409.5,72,412.2,72.1,414.9z"/>
	<path class="st1_video-call-1-55" d="M72.1,415.6c-0.2,0-0.3-0.1-0.5-0.2c-0.2-0.1-0.3-0.3-0.3-0.5c-0.2-2.8,0.1-5.5,0.7-8.3&#10;&#9;&#9;c0.1-0.3,0.4-0.6,0.7-0.6l0,0c5,0,15,0,17.3-0.7s4.8-4.6,5.6-6c0.2-0.3,0.5-0.4,0.8-0.4c2.5,0.7,14.9,4.2,14.1,8.6&#10;&#9;&#9;c-0.2,1-0.6,3-19.8,5.8C81.6,414.8,72.3,415.6,72.1,415.6L72.1,415.6z M73.4,407.6c-0.4,2.1-0.6,4.3-0.6,6.5&#10;&#9;&#9;c17.1-1.7,35.7-4.7,36.3-6.8c0.4-2.1-7-5.2-12.5-6.7c-0.9,1.5-3.5,5.5-6.2,6.2S76.2,407.6,73.4,407.6L73.4,407.6z"/>
	<path class="st1_video-call-1-55" d="M133.4,415.8l0.2-7.8c0,0,11.4,2.5,17.2,2.1s7.6-7.4,7.6-7.4s17.1,9,14.3,11.6S133.4,415.8,133.4,415.8z"/>
	<path class="st1_video-call-1-55" d="M151.4,416.8c-7.8,0-15.3-0.2-18.1-0.3c-0.4,0-0.7-0.4-0.7-0.8l0.2-7.8c0-0.2,0.1-0.4,0.3-0.6&#10;&#9;&#9;c0.2-0.1,0.4-0.2,0.6-0.1c0.1,0,11.4,2.5,17,2.1c5.2-0.3,6.9-6.8,6.9-6.8c0.1-0.2,0.2-0.4,0.4-0.5c0.2-0.1,0.4-0.1,0.6,0&#10;&#9;&#9;c2.4,1.3,14.5,7.8,15,11.3c0.1,0.6-0.1,1.1-0.5,1.5C171.6,416.4,161.2,416.8,151.4,416.8z M134.1,415c17.4,0.6,36.4,0.4,38.1-1.2&#10;&#9;&#9;c0.1-0.1,0.1-0.1,0.1-0.2c-0.3-2-7.8-6.7-13.5-9.8c-0.7,2-2.9,6.7-7.9,7s-13.7-1.4-16.6-2L134.1,415z"/>
	<polygon class="st3_video-call-1-55 targetColor" points="134.6,168.1 166.2,191.8 151,225.1 126.6,213.1 &#9;" style="fill: rgb(104, 225, 253);"/>
	<path class="st1_video-call-1-55" d="M143.4,221.7c-0.2,0-0.3,0-0.4-0.1c-0.6-0.4-15-10.3-21.8-19.4c-0.3-0.3-0.2-0.8,0.1-1c0.3-0.3,0.8-0.2,1,0.1&#10;&#9;&#9;c0,0,0,0,0,0.1c6.6,8.9,21.3,19,21.4,19.1c0.3,0.2,0.4,0.7,0.2,1C143.9,221.6,143.7,221.7,143.4,221.7z"/>
	<path class="st1_video-call-1-55" d="M101.6,130.5c3.6-1.4,6.8-3.8,9.1-6.9c2.3-2.8,4.2-6.2,4.3-9.9c0.1-1.6-0.4-3.2-1.4-4.5&#10;&#9;&#9;c-1.7-1.9-4.8-2.2-7.2-1.2c-2.3,1.1-4.4,2.8-5.9,4.9C95,119.1,85.3,136,101.6,130.5z"/>
	<path class="st1_video-call-1-55" d="M96.3,132.3c-1.4,0.1-2.9-0.5-3.7-1.6c-2.8-4.1,3.9-14.3,7.3-18.3c1.6-1.9,3.6-4,6.2-5.1c2.4-1,5.9-1,8,1.4&#10;&#9;&#9;c1.1,1.4,1.7,3.2,1.6,5c0,3.3-1.5,6.7-4.4,10.4s-6.1,6-9.5,7.2l0,0C100,131.9,98.2,132.2,96.3,132.3z M109.2,108.2&#10;&#9;&#9;c-0.9,0-1.8,0.2-2.6,0.5c-2.3,1-4.1,2.9-5.7,4.7c-4.3,5-9.1,13.7-7.2,16.5c0.9,1.3,3.5,1.3,7.6-0.1c3.1-1,6-3.3,8.8-6.7&#10;&#9;&#9;s4.1-6.5,4.1-9.4c0.1-1.4-0.4-2.9-1.2-4C112,108.6,110.6,108.1,109.2,108.2z M101.6,130.5L101.6,130.5z"/>
	<path class="st2_video-call-1-55" d="M109,121.5c3.8-5.5,5.7-13.3,1.8-18.7c-2-2.4-4.6-4.2-7.5-5.2c-4.2-1.7-8.8-2.2-13.2-1.3&#10;&#9;&#9;c-8.2,1.8-14.8,7.4-15.2,16.4c-0.4,8,4.7,16.8,12.9,17.8S104,128.5,109,121.5z"/>
	<path class="st1_video-call-1-55" d="M91,131.5c-1.1,0-2.2-0.1-3.3-0.2c-8.9-1.1-14-10.5-13.6-18.6c0.4-8.6,6.3-15,15.8-17.1&#10;&#9;&#9;c4.6-0.9,9.3-0.4,13.6,1.4c3.6,1.4,6.2,3.2,7.8,5.4c4.2,5.7,2.1,13.9-1.8,19.5l0,0C105.4,128,98.4,131.6,91,131.5z M94.2,96.6&#10;&#9;&#9;c-1.3,0-2.7,0.1-4,0.4c-8.7,2-14.2,7.8-14.6,15.7c-0.4,7.4,4.2,16,12.3,17.1c8.4,1.1,15.9-2.1,20.5-8.8c3.6-5.2,5.6-12.7,1.8-17.8&#10;&#9;&#9;c-1.9-2.3-4.3-4-7.1-4.9C100.2,97.2,97.2,96.6,94.2,96.6z M109,121.5L109,121.5z"/>
	<path class="st1_video-call-1-55" d="M78.3,231.4h-0.1c-0.4-0.1-0.7-0.4-0.6-0.9c2-11.7,8-42.7,8-43c0.1-0.4,0.5-0.7,0.9-0.6&#10;&#9;&#9;c0.4,0.1,0.7,0.5,0.6,0.9c-0.1,0.3-6.1,31.3-8,42.9C79,231.1,78.7,231.4,78.3,231.4z"/>
	<path class="st1_video-call-1-55" d="M134.8,149c0,0-7.3-0.8-7.4-0.6c0.7,1.8,2.1,3.2,3.8,4c1.4,0.5,2.9-0.2,3.4-1.6L134.8,149z"/>
	<path class="st1_video-call-1-55" d="M132.3,153.3c-0.4,0-0.8-0.1-1.2-0.2c-2.6-0.9-4.4-4.1-4.3-4.7c0-0.2,0.1-0.4,0.3-0.5c0.3-0.2,0.5-0.4,7.9,0.4&#10;&#9;&#9;c0.4,0,0.7,0.4,0.7,0.8l-0.2,1.8c0,0.1,0,0.1,0,0.2C134.9,152.4,133.7,153.3,132.3,153.3z M128.6,149.1c0.7,1.1,1.7,2,2.9,2.5&#10;&#9;&#9;c1,0.4,2-0.1,2.4-1.1c0,0,0,0,0,0l0.1-0.9C132,149.4,129.9,149.2,128.6,149.1z"/>
</g>
<g id="Plant_video-call-1-55">
	<path class="st1_video-call-1-55" d="M431,311.2c0.1-2.2-0.3-4.3-1.3-6.2c-0.8-1.4-2.1-2.5-2.8-3.9c-1.2-2.5-0.4-5.5-0.6-8.3&#10;&#9;&#9;c-0.2-2.3-1.3-4.5-2.9-6.2c-1.5-1.5-3.3-2.5-4.7-4c-2.3-2.5-2.9-6-4.2-9.2c-1.8-4.4-5-8.2-9.1-10.7c2.5,5-3.2,11.3-0.6,16.2&#10;&#9;&#9;c0.8,1.6,2.4,2.7,3,4.4c1.4,4-3.4,8.4-1.8,12.3c0.8,2,2.9,3.1,3.9,5c1.3,2.5,0.3,5.6,0.4,8.5c0.1,4,2.6,7.5,5.4,10.2&#10;&#9;&#9;c1.8,1.7,3.8,3.2,5.7,4.7c2.3,1.8,3.3,3.8,5.3,0.8C429.4,320.9,430.9,316.2,431,311.2z"/>
	<path class="st1_video-call-1-55" d="M433.5,313.5c-0.7-3-1.3-6.4,0-9.2c1.4-3.3,4.9-5.6,5.3-9.1c0.3-2.3-0.9-4.7-0.5-6.9s2.3-3.8,3.9-5.5&#10;&#9;&#9;c3.6-3.9,5.7-8.9,6-14.1c2.2,2.9,4.5,5.9,5.7,9.4s1.2,7.5-0.8,10.6c-0.6,0.7-1.1,1.5-1.4,2.4c-0.7,2.2,1.2,4.4,2.2,6.5&#10;&#9;&#9;c1.2,2.5,0.9,5.4-0.7,7.7c-2,2.5-5.9,3.5-6.9,6.6c-0.2,1.1-0.4,2.3-0.4,3.5c-0.4,4.2-3.3,7.6-7.4,8.8c-2.4,0.6-2.3-0.4-2.8-2.4&#10;&#9;&#9;C435.2,318.8,434.2,316.2,433.5,313.5z"/>
	<path class="st1_video-call-1-55" d="M425.9,291.5c-1.7-5.9-2.4-12-4.2-17.9c-1.5-4.6-3.4-9-5.6-13.3l7.3,3.1c2.3,1,4.9,2.1,6,4.4&#10;&#9;&#9;c1.9,4-1.5,9.1,0.5,13c0.7,1.4,2,2.4,2.9,3.6c2.1,3,1.8,7.1,0.6,10.7c-0.5,1.5-2.7,9.3-4.7,7.1c-0.8-0.9-0.9-4.1-1.2-5.3&#10;&#9;&#9;C427.1,295.1,426.4,293.4,425.9,291.5z"/>
	<path class="st1_video-call-1-55" d="M429.8,369.6c-1.5-9.6-6-43.4-6-43.8l1.5-0.2c0,0.3,4.6,34.2,6,43.8L429.8,369.6z"/>
	<path class="st1_video-call-1-55" d="M431.7,378.6h-1.5c0.1-11.4,4.9-55,7.6-58l1.1,1C436.8,323.9,431.8,366,431.7,378.6z"/>
	<path class="st1_video-call-1-55" d="M434.2,376.4l-1.5-0.1c1.1-24.6-4.1-76.2-4.2-76.7l1.5-0.1C430,300.1,435.3,351.8,434.2,376.4z"/>
	<path class="st2_video-call-1-55" d="M417.4,342h27.1l-1.9,30.8c-0.3,5.3-4.3,9.5-9,9.5h-5.2c-4.8,0-8.7-4.1-9-9.5L417.4,342z"/>
	<path class="st1_video-call-1-55" d="M433.6,383.1h-5.2c-5.1,0-9.5-4.5-9.8-10.2l-1.9-30.8c0-0.2,0.1-0.4,0.2-0.6c0.1-0.2,0.3-0.2,0.6-0.2h27.1&#10;&#9;&#9;c0.2,0,0.4,0.1,0.5,0.2c0.1,0.2,0.2,0.4,0.2,0.6l-1.9,30.8C443,378.6,438.7,383.1,433.6,383.1z M418.2,342.8l1.9,30&#10;&#9;&#9;c0.3,4.9,3.9,8.8,8.3,8.8h5.2c4.3,0,8-3.9,8.3-8.8l1.8-30H418.2z"/>
</g>
<g id="Audio_icon_video-call-1-55">
	
		<ellipse transform="matrix(0.7163 -0.6978 0.6978 0.7163 -175.6514 275.7554)" class="st2_video-call-1-55" cx="251.3" cy="353.9" rx="18.3" ry="17.4"/>
	<path class="st1_video-call-1-55" d="M250.4,372.5c-9.7,0.1-17.6-7.6-17.7-17.3c0-0.4,0-0.9,0-1.3c0.7-10.3,9.2-18.4,19.5-18.6&#10;&#9;&#9;c9.7-0.1,17.6,7.7,17.7,17.3c0,0.5,0,0.9,0,1.4C269.2,364.3,260.7,372.4,250.4,372.5z M252.2,336.8c-9.6,0.1-17.4,7.6-18,17.2&#10;&#9;&#9;c-0.6,8.8,6.1,16.4,14.9,17c0.4,0,0.8,0,1.2,0c9.6-0.1,17.5-7.6,18.1-17.1c0.6-8.8-6.1-16.4-14.9-17&#10;&#9;&#9;C253.1,336.8,252.7,336.8,252.2,336.8L252.2,336.8z"/>
	<path class="st0_video-call-1-55" d="M252.3,358.7h-2.5c-2,0-3.7-1.6-3.7-3.7c0-0.1,0-0.2,0-0.2l0.4-7.4c0.1-2.1,1.9-3.8,4-3.8h2.6&#10;&#9;&#9;c1,0,2,0.4,2.7,1.1c0.7,0.7,1.1,1.7,1,2.8l-0.4,7.4C256.2,357,254.4,358.7,252.3,358.7z M250.5,345c-1.4,0-2.5,1.1-2.6,2.4&#10;&#9;&#9;l-0.4,7.4c0,0.6,0.2,1.2,0.6,1.7c0.4,0.4,1,0.7,1.6,0.7h2.5c1.4,0,2.5-1.1,2.6-2.4l0.4-7.4c0.1-1.2-0.8-2.3-2.1-2.4&#10;&#9;&#9;c-0.1,0-0.1,0-0.2,0H250.5z"/>
	<path class="st0_video-call-1-55" d="M250.8,363.3L250.8,363.3c-0.4,0-0.7-0.4-0.7-0.8c0,0,0,0,0,0l0.2-4.6c0-0.4,0.4-0.7,0.8-0.7&#10;&#9;&#9;c0.4,0,0.7,0.4,0.7,0.8l0,0l-0.2,4.6C251.5,363,251.2,363.3,250.8,363.3C250.8,363.3,250.8,363.3,250.8,363.3z"/>
	<path class="st0_video-call-1-55" d="M254.9,363.3h-8.3c-0.4,0-0.7-0.3-0.7-0.7c0-0.4,0.3-0.7,0.7-0.7h8.3c0.4,0,0.7,0.3,0.7,0.7&#10;&#9;&#9;C255.7,362.9,255.3,363.3,254.9,363.3z"/>
	<path class="st0_video-call-1-55" d="M255.8,351.8H247c-0.4,0-0.7-0.3-0.7-0.7c0-0.4,0.3-0.7,0.7-0.7h8.8c0.4,0,0.7,0.3,0.7,0.7&#10;&#9;&#9;C256.5,351.5,256.2,351.8,255.8,351.8L255.8,351.8z"/>
</g>
<g id="video_call_icon_video-call-1-55">
	
		<ellipse transform="matrix(0.7163 -0.6978 0.6978 0.7163 -151.1272 336.0555)" class="st2_video-call-1-55" cx="337.7" cy="353.9" rx="18.3" ry="17.4"/>
	<path class="st1_video-call-1-55" d="M336.8,372.5c-9.7,0.1-17.6-7.7-17.7-17.3c0-0.4,0-0.9,0-1.3c0.7-10.3,9.2-18.4,19.5-18.6&#10;&#9;&#9;c9.7-0.1,17.6,7.7,17.7,17.4c0,0.4,0,0.9,0,1.3C355.6,364.3,347.1,372.4,336.8,372.5z M338.6,336.8c-9.6,0.1-17.4,7.6-18,17.2&#10;&#9;&#9;c-0.6,8.8,6.1,16.4,14.9,17c0.4,0,0.8,0,1.2,0c9.6-0.1,17.4-7.6,18-17.1l0,0c0.6-8.8-6.1-16.4-14.9-17&#10;&#9;&#9;C339.5,336.8,339.1,336.8,338.6,336.8L338.6,336.8z"/>
	<path class="st0_video-call-1-55" d="M339.5,360.1h-10.2c-1.4,0-2.5-1.1-2.5-2.5c0-0.1,0-0.1,0-0.2l0.4-7.7c0.1-1.4,1.3-2.6,2.7-2.6h10.2&#10;&#9;&#9;c1.4,0,2.5,1.1,2.5,2.5c0,0.1,0,0.1,0,0.2l-0.4,7.7C342.1,359,340.9,360.1,339.5,360.1z M329.9,348.7c-0.7,0-1.2,0.5-1.2,1.2&#10;&#9;&#9;l-0.4,7.7c0,0.3,0.1,0.6,0.3,0.8c0.2,0.2,0.5,0.3,0.8,0.3h10.2c0.7,0,1.2-0.5,1.2-1.2l0.4-7.7c0-0.3-0.1-0.6-0.3-0.8&#10;&#9;&#9;c-0.2-0.2-0.5-0.3-0.8-0.3H329.9z"/>
	<path class="st0_video-call-1-55" d="M348,358.2c-0.1,0-0.2,0-0.2,0l-3.9-1.4c-0.3-0.1-0.5-0.4-0.5-0.7l0.3-5.7c0-0.3,0.2-0.6,0.5-0.7l4-1.4&#10;&#9;&#9;c0.2-0.1,0.5,0,0.7,0.1c0.2,0.1,0.3,0.4,0.3,0.6l-0.4,8.4c0,0.2-0.1,0.4-0.3,0.6C348.3,358.2,348.1,358.2,348,358.2z M344.9,355.6&#10;&#9;&#9;l2.4,0.9l0.3-6.3l-2.5,0.8L344.9,355.6z"/>
</g>
<g id="Call_Icon_video-call-1-55">
	
		<ellipse transform="matrix(0.7163 -0.6978 0.6978 0.7163 -163.3942 305.9005)" class="st3_video-call-1-55 targetColor" cx="294.5" cy="353.9" rx="18.3" ry="17.4" style="fill: rgb(104, 225, 253);"/>
	<path class="st2_video-call-1-55" d="M294.4,348.9c-1.4,0-2.7,0.1-4,0.2c-2.3,0.3-5.9,0.4-7.3,2.7c-0.9,1.5-1.3,3.3-1.1,5c0,0.6,0.4,1.1,1,1.3&#10;&#9;&#9;c1.3,0.4,2.7,0.4,4,0.1c0.8-0.2,1.3-0.8,1.3-1.6c0.1-0.7,0.1-1.5,0.2-2.2c0-0.6,0.3-1,0.7-1c1.9-0.1,2.2-0.3,4-0.3&#10;&#9;&#9;c2.4,0,3.2,0.2,5.6,0.3c1,0,1.1,0.2,1,1.4c-0.1,0.7-0.1,1.3,0,2c0,0.7,0.5,1.3,1.1,1.4c1.3,0.3,2.6,0.3,3.9,0&#10;&#9;&#9;c0.7-0.1,1.3-0.7,1.3-1.5c0.1-0.6,0.1-1.3,0.1-2c0.1-1.5-0.5-3-1.6-4c-1.4-1.1-3.8-1.3-5.5-1.5C297.5,349,295.9,348.9,294.4,348.9z&#10;&#9;&#9;"/>
</g>
</svg>